<?xml version="1.0" encoding="UTF-8" standalone="no"?>
<svg
   xmlns:dc="http://purl.org/dc/elements/1.1/"
   xmlns:cc="http://creativecommons.org/ns#"
   xmlns:rdf="http://www.w3.org/1999/02/22-rdf-syntax-ns#"
   xmlns:svg="http://www.w3.org/2000/svg"
   xmlns="http://www.w3.org/2000/svg"
   xmlns:sodipodi="http://sodipodi.sourceforge.net/DTD/sodipodi-0.dtd"
   xmlns:inkscape="http://www.inkscape.org/namespaces/inkscape"
   width="15px"
   height="15px"
   viewBox="0 0 20 20"
   version="1.1"
   id="svg8"
   inkscape:version="1.0.1 (3bc2e813f5, 2020-09-07)"
   sodipodi:docname="img-procurar.svg">
  <defs
     id="defs2" />
  <sodipodi:namedview
     id="base"
     pagecolor="#ffffff"
     bordercolor="#666666"
     borderopacity="1.0"
     inkscape:pageopacity="0.0"
     inkscape:pageshadow="2"
     inkscape:zoom="0.35"
     inkscape:cx="630.89502"
     inkscape:cy="539.20264"
     inkscape:document-units="mm"
     inkscape:current-layer="layer1"
     inkscape:document-rotation="0"
     showgrid="false"
     inkscape:window-width="1366"
     inkscape:window-height="704"
     inkscape:window-x="0"
     inkscape:window-y="0"
     inkscape:window-maximized="1" />
  <metadata
     id="metadata5">
    <rdf:RDF>
      <cc:Work
         rdf:about="">
        <dc:format>image/svg+xml</dc:format>
        <dc:type
           rdf:resource="http://purl.org/dc/dcmitype/StillImage" />
        <dc:title></dc:title>
      </cc:Work>
    </rdf:RDF>
  </metadata>
  <g
     inkscape:label="Layer 1"
     inkscape:groupmode="layer"
     id="layer1">
    <path
       style="fill:#000000;stroke-width:0.0674935"
       d="m 18.171434,19.883672 c -0.178571,-0.08401 -1.187839,-1.050498 -2.990325,-2.863565 l -2.720781,-2.736756 -0.277875,0.187405 c -0.844165,0.569319 -1.929001,1.008401 -2.9314407,1.186493 -0.742273,0.131871 -2.034539,0.132288 -2.774012,10e-4 -3.504643,-0.622714 -6.20790996,-3.607462 -6.45432196,-7.1263891 -0.121213,-1.730997 0.243847,-3.311818 1.08625296,-4.70381 0.997644,-1.648507 2.513685,-2.85559201 4.32663,-3.44490001 C 9.9960133,-1.0992521 14.839114,1.8750039 15.607799,6.6301479 15.9155,8.5335999 15.479313,10.622239 14.447403,12.186575 l -0.173978,0.263742 2.803925,2.818285 c 2.078054,2.088695 2.815201,2.870783 2.84749,3.021088 0.02397,0.111544 0.05349,0.236256 0.06563,0.277136 0.05308,0.178843 -0.124037,0.700694 -0.317881,0.936617 -0.391022,0.475903 -0.980527,0.625259 -1.50115,0.380329 z M 9.1417673,13.353983 c 1.9738057,-0.50534 3.4579377,-1.907767 4.0771497,-3.8526961 0.228677,-0.71827 0.265056,-2.094574 0.07631,-2.887245 -0.500279,-2.101049 -2.078742,-3.684587 -4.1730547,-4.186476 -0.790025,-0.189324 -2.161952,-0.152851 -2.877989,0.07651 -0.940211,0.301171 -1.812454,0.839449 -2.43877,1.505011 -2.146648,2.28116 -2.054519,5.788096 0.208714,7.9448611 0.832569,0.793403 1.919335,1.330104 3.038683,1.500653 0.528436,0.08052 1.579126,0.02991 2.088953,-0.10062 z"
       id="path40" />
  </g>
</svg>
