<?xml version="1.0" encoding="UTF-8" standalone="no"?>
<!-- Created with Inkscape (http://www.inkscape.org/) -->

<svg
   xmlns:dc="http://purl.org/dc/elements/1.1/"
   xmlns:cc="http://creativecommons.org/ns#"
   xmlns:rdf="http://www.w3.org/1999/02/22-rdf-syntax-ns#"
   xmlns:svg="http://www.w3.org/2000/svg"
   xmlns="http://www.w3.org/2000/svg"
   xmlns:sodipodi="http://sodipodi.sourceforge.net/DTD/sodipodi-0.dtd"
   xmlns:inkscape="http://www.inkscape.org/namespaces/inkscape"
   width="499.59299mm"
   height="62.863998mm"
   viewBox="0 0 499.59299 62.863998"
   version="1.1"
   id="svg8"
   inkscape:version="0.92.5 (2060ec1f9f, 2020-04-08)"
   sodipodi:docname="labetube.svg">
  <defs
     id="defs2" />
  <sodipodi:namedview
     id="base"
     pagecolor="#ffffff"
     bordercolor="#666666"
     borderopacity="1.0"
     inkscape:pageopacity="0.0"
     inkscape:pageshadow="2"
     inkscape:zoom="0.175"
     inkscape:cx="1216.785"
     inkscape:cy="-254.39028"
     inkscape:document-units="mm"
     inkscape:current-layer="layer1"
     showgrid="false"
     inkscape:window-width="1366"
     inkscape:window-height="696"
     inkscape:window-x="0"
     inkscape:window-y="0"
     inkscape:window-maximized="1" />
  <metadata
     id="metadata5">
    <rdf:RDF>
      <cc:Work
         rdf:about="">
        <dc:format>image/svg+xml</dc:format>
        <dc:type
           rdf:resource="http://purl.org/dc/dcmitype/StillImage" />
        <dc:title></dc:title>
      </cc:Work>
    </rdf:RDF>
  </metadata>
  <g
     inkscape:label="Camada 1"
     inkscape:groupmode="layer"
     id="layer1"
     transform="translate(0,-234.136)">
    <path
       style="fill:#45525b;fill-opacity:1;stroke-width:0.65514791"
       d="m 58.89541,296.93005 c -6.746907,-1.8167 -10.771131,-7.28035 -10.223775,-13.88075 0.389805,-4.70052 2.522716,-7.7056 7.0656,-9.95481 3.285776,-1.62678 4.440462,-1.81286 13.102958,-2.11159 l 9.499646,-0.32757 -0.206536,-1.96544 c -0.532872,-5.07096 -3.987702,-7.10011 -11.54153,-6.77878 -4.190242,0.17828 -6.058187,0.59824 -8.654546,1.94588 l -3.310983,1.7186 -2.127862,-4.31509 -2.127861,-4.31506 1.451942,-1.17573 c 3.026672,-2.45084 10.305471,-4.11283 18.014368,-4.11325 6.869874,-4e-4 7.437501,0.10647 11.687708,2.19884 4.764386,2.34556 7.58474,5.67492 8.94007,10.55353 0.35382,1.27358 0.64495,9.17012 0.64696,17.5478 l 0.004,15.23221 h -5.896387 -5.896331 v -2.69683 -2.69682 l -2.544273,2.29858 c -3.89817,3.52178 -11.096871,4.66351 -17.882878,2.83628 z m 14.091091,-8.49663 c 3.306498,-1.38154 5.680913,-4.61304 5.680913,-7.73153 v -2.62828 l -7.155646,0.22186 c -6.511114,0.2018 -7.307768,0.36481 -8.844496,1.81004 -5.362174,5.04285 2.669125,11.52442 10.319229,8.32801 z m 51.668649,8.80526 c -1.19109,-0.30491 -3.62333,-1.46056 -5.40497,-2.56809 l -3.23933,-2.01368 v 2.26595 2.26598 h -6.22391 -6.22391 v -31.11953 -31.11953 h 6.55148 6.55148 v 10.86819 10.86817 l 2.00901,-1.69047 c 4.73427,-3.98363 14.20611,-4.68267 21.04223,-1.55299 5.0621,2.3175 8.05797,5.22802 10.51163,10.21208 1.98923,4.04071 2.14244,4.82263 2.13918,10.91769 -0.003,5.69324 -0.22939,7.04782 -1.70411,10.19847 -3.70557,7.91667 -10.2223,12.29463 -18.99873,12.76341 -2.66443,0.14238 -5.81895,0.01 -7.01005,-0.29565 z m 10.14484,-12.21524 c 6.35019,-4.84352 6.32323,-16.05147 -0.0503,-20.91279 -4.6324,-3.53332 -12.35218,-2.60768 -15.78475,1.89264 -3.50674,4.59759 -3.59428,12.19293 -0.19552,16.96606 3.2833,4.61096 11.32705,5.64166 16.03059,2.05409 z m 41.81203,11.93903 c -7.34821,-1.91414 -12.96328,-6.20167 -15.86782,-12.11627 -1.62282,-3.30457 -1.82117,-4.42206 -1.82117,-10.25998 0,-7.77776 1.15147,-10.91071 5.86027,-15.94479 7.22291,-7.72187 20.06098,-9.49752 30.05418,-4.15681 6.4131,3.42736 10.31207,10.14609 10.8023,18.61455 l 0.29468,5.09037 h -17.11802 c -13.94716,0 -17.11803,0.16417 -17.11803,0.88584 0,1.83431 3.06481,5.39263 5.90162,6.85193 2.46343,1.26722 3.75119,1.48069 7.90439,1.3103 4.15549,-0.17061 5.41897,-0.5063 7.77735,-2.06704 l 2.81584,-1.86347 3.03258,3.4667 c 1.66793,1.90669 3.0326,3.77712 3.0326,4.15649 0,0.98875 -5.88343,4.78335 -8.72833,5.62948 -3.82015,1.13621 -13.14933,1.3595 -16.82244,0.4027 z m 16.95054,-26.4999 c 0.65247,-1.05573 -2.1251,-5.88175 -4.2626,-7.40624 -1.82381,-1.30077 -2.99937,-1.57305 -6.79161,-1.57305 -3.79223,0 -4.9678,0.27228 -6.79161,1.57305 -2.1375,1.52449 -4.91507,6.35051 -4.26259,7.40624 0.4201,0.67975 21.6883,0.67975 22.10841,0 z m 79.78082,26.17094 c -4.24169,-1.51699 -6.49323,-3.11413 -8.45622,-5.9985 -2.94565,-4.32823 -3.43348,-7.69572 -3.43348,-23.7019 v -14.94948 h 6.1676 6.16761 l 0.22509,13.92188 c 0.25006,15.46306 0.61987,17.01201 4.6691,19.55611 2.69316,1.69207 8.19417,1.42854 10.80529,-0.51767 4.0212,-2.99723 4.37509,-4.48502 4.60631,-19.36601 l 0.21122,-13.59431 h 6.50402 6.50406 v 22.60259 22.60262 h -6.22391 -6.2239 v -2.73481 -2.73479 l -1.4741,1.35057 c -4.69242,4.29924 -13.5765,5.8784 -20.04876,3.5637 z m 67.51061,0.60517 c -1.1911,-0.30491 -3.62335,-1.46056 -5.40499,-2.56809 l -3.23932,-2.01368 v 2.26595 2.26598 h -6.2239 -6.22393 v -31.11953 -31.11953 h 6.5515 6.55147 v 10.86819 10.86817 l 2.009,-1.69047 c 4.73427,-3.98363 14.20609,-4.68267 21.04221,-1.55299 5.0621,2.3175 8.05796,5.22802 10.51163,10.21208 1.98924,4.04071 2.14244,4.82263 2.13917,10.91769 -0.002,5.69324 -0.22929,7.04782 -1.70411,10.19847 -3.70556,7.91667 -10.22229,12.29463 -18.99873,12.76341 -2.66441,0.14238 -5.81892,0.01 -7.01,-0.29565 z m 10.14481,-12.21524 c 6.35018,-4.84352 6.32322,-16.05147 -0.0503,-20.91279 -4.6324,-3.53332 -12.35215,-2.60768 -15.78473,1.89264 -3.50675,4.59759 -3.59428,12.19293 -0.19562,16.96606 3.2833,4.61096 11.32702,5.64166 16.03057,2.05409 z m 41.81203,11.93903 c -7.34822,-1.91414 -12.96328,-6.20167 -15.86783,-12.11627 -1.62282,-3.30457 -1.82116,-4.42206 -1.82116,-10.25998 0,-7.77776 1.15146,-10.91071 5.86025,-15.94479 7.22291,-7.72187 20.061,-9.49752 30.05419,-4.15681 6.41311,3.42736 10.31208,10.14609 10.8023,18.61455 l 0.29467,5.09037 h -17.11802 c -13.94714,0 -17.11802,0.16417 -17.11802,0.88584 0,1.83431 3.06481,5.39263 5.90163,6.85193 2.46342,1.26722 3.75119,1.48069 7.90439,1.3103 4.15547,-0.17061 5.41895,-0.5063 7.77734,-2.06704 l 2.81585,-1.86347 3.03257,3.4667 c 1.66793,1.90669 3.03261,3.77712 3.03261,4.15649 0,0.98875 -5.88343,4.78335 -8.72835,5.62948 -3.82013,1.13621 -13.14932,1.3595 -16.82242,0.4027 z m 16.95053,-26.4999 c 0.65247,-1.05573 -2.1251,-5.88175 -4.26259,-7.40624 -1.82381,-1.30077 -2.99938,-1.57305 -6.79161,-1.57305 -3.79224,0 -4.96782,0.27228 -6.79163,1.57305 -2.13748,1.52449 -4.91506,6.35051 -4.26259,7.40624 0.42013,0.67975 21.68832,0.67975 22.10842,0 z M 0.70481491,267.70718 V 238.22553 H 7.5838679 14.46292 v 23.91289 23.91289 h 14.740829 14.740825 v 5.56876 5.56877 H 22.324694 0.70481491 Z M 225.42053,273.27594 v -23.91292 h -7.20662 -7.20663 v -5.56873 -5.56876 h 21.61989 21.61988 v 5.56876 5.56873 h -7.53421 -7.5342 v 23.91292 23.9129 h -6.87904 -6.87907 z"
       id="path826"
       inkscape:connector-curvature="0" />
    <path
       style="fill:#f47d1f;fill-opacity:1;stroke-width:0.4673177"
       d="m 492.46969,258.46316 7.82766,7.85275 -7.84163,7.83144 -7.84161,7.83143 -1.75123,-2.29634 c -5.04016,-6.60909 -5.90629,-15.85618 -2.18172,-23.29294 0.74411,-1.48573 1.93972,-3.39383 2.65692,-4.24021 l 1.30397,-1.53887 z"
       id="path839"
       inkscape:connector-curvature="0" />
    <path
       style="fill:#f6af56;fill-opacity:1;stroke-width:0.4673177"
       d="m 476.76137,289.80643 -7.85275,7.82766 -7.83144,-7.84163 -7.83144,-7.84162 2.29634,-1.75123 c 6.6091,-5.04016 15.85619,-5.90629 23.29294,-2.18172 1.48574,0.74411 3.39384,1.93972 4.24022,2.65692 l 1.53887,1.30397 z"
       id="path839-3"
       inkscape:connector-curvature="0" />
    <path
       style="fill:#a8bac5;fill-opacity:1;stroke-width:0.4673177"
       d="m 461.12927,274.0981 7.82766,-7.85275 -7.84163,-7.83144 -7.84161,-7.83144 -1.75123,2.29634 c -5.04016,6.6091 -5.90629,15.85619 -2.18173,23.29294 0.74412,1.48574 1.93972,3.39384 2.65692,4.24022 l 1.30398,1.53887 z"
       id="path839-6"
       inkscape:connector-curvature="0" />
    <path
       style="fill:#45525b;fill-opacity:1;stroke-width:0.4673177"
       d="m 461.12643,242.75484 7.85275,-7.82767 7.83144,7.84163 7.83143,7.84162 -2.29634,1.75122 c -6.60909,5.04016 -15.85618,5.90629 -23.29294,2.18173 -1.48573,-0.74412 -3.39383,-1.93972 -4.24022,-2.65692 l -1.53886,-1.30398 z"
       id="path839-3-7"
       inkscape:connector-curvature="0" />
  </g>
</svg>
