<?xml version="1.0" encoding="UTF-8" standalone="no"?>
<!-- Created with Inkscape (http://www.inkscape.org/) -->

<svg
   xmlns:dc="http://purl.org/dc/elements/1.1/"
   xmlns:cc="http://creativecommons.org/ns#"
   xmlns:rdf="http://www.w3.org/1999/02/22-rdf-syntax-ns#"
   xmlns:svg="http://www.w3.org/2000/svg"
   xmlns="http://www.w3.org/2000/svg"
   xmlns:sodipodi="http://sodipodi.sourceforge.net/DTD/sodipodi-0.dtd"
   xmlns:inkscape="http://www.inkscape.org/namespaces/inkscape"
   version="1.1"
   id="svg2"
   width="330"
   height="108"
   viewBox="0 0 330 108"
   sodipodi:docname="logo-alvaro-barros.svg"
   inkscape:version="0.92.5 (2060ec1f9f, 2020-04-08)">
  <metadata
     id="metadata8">
    <rdf:RDF>
      <cc:Work
         rdf:about="">
        <dc:format>image/svg+xml</dc:format>
        <dc:type
           rdf:resource="http://purl.org/dc/dcmitype/StillImage" />
        <dc:title></dc:title>
      </cc:Work>
    </rdf:RDF>
  </metadata>
  <defs
     id="defs6" />
  <sodipodi:namedview
     pagecolor="#ffffff"
     bordercolor="#666666"
     borderopacity="1"
     objecttolerance="10"
     gridtolerance="10"
     guidetolerance="10"
     inkscape:pageopacity="0"
     inkscape:pageshadow="2"
     inkscape:window-width="1366"
     inkscape:window-height="696"
     id="namedview4"
     showgrid="false"
     inkscape:zoom="1.3272727"
     inkscape:cx="243.34123"
     inkscape:cy="63.891933"
     inkscape:window-x="0"
     inkscape:window-y="0"
     inkscape:window-maximized="1"
     inkscape:current-layer="svg2" />
  <path
     style="fill:#000000"
     d=""
     id="path12"
     inkscape:connector-curvature="0" />
  <path
     style="fill:#7a7a7a;fill-opacity:1;stroke-width:0.55797094"
     d="m 237.44436,58.998252 c -5.00384,-1.867778 -6.85044,-4.403534 -6.42572,-8.823766 0.50821,-5.289033 3.9718,-7.247406 13.45088,-7.605366 l 6.61176,-0.249682 -0.33626,-1.74265 c -0.73273,-3.797305 -5.32393,-4.911571 -9.53943,-2.315178 -2.69379,1.659154 -7.74891,1.988684 -8.30431,0.541337 -0.69401,-1.808526 1.10325,-4.502123 3.91828,-5.872462 2.31737,-1.128078 3.56487,-1.322404 8.57082,-1.335107 5.03074,-0.01277 6.2327,0.169323 8.50516,1.28846 1.45555,0.716827 3.21316,2.097806 3.90579,3.06884 1.201,1.683727 1.25933,2.256634 1.25933,12.366963 v 10.60145 l -3.18661,0.166687 c -2.6166,0.136876 -3.30269,-0.01914 -3.83544,-0.872238 -0.63128,-1.010831 -0.70835,-1.009479 -2.84983,0.05004 -2.8347,1.402498 -8.93104,1.782817 -11.74442,0.732672 z m 11.78904,-6.182376 c 1.43804,-0.743641 1.73668,-1.23145 1.73668,-2.83665 v -1.93857 h -4.74274 c -3.9988,0 -4.91781,0.175049 -5.8587,1.115942 -1.42969,1.429695 -1.41074,2.49506 0.0708,3.976555 1.00725,1.007253 1.63057,1.14089 4.12199,0.883752 1.61442,-0.166623 3.71682,-0.707086 4.672,-1.201029 z m 48.70814,5.881027 c -5.66265,-1.955748 -8.47146,-6.331149 -8.47146,-13.19636 0,-8.506636 4.34553,-13.203054 12.96102,-14.007581 7.15656,-0.66829 13.06311,1.841802 15.61584,6.636231 1.83196,3.440715 1.83196,11.360473 0,14.801188 -3.14079,5.898889 -12.19945,8.497046 -20.1054,5.766522 z m 9.8907,-5.32921 c 2.06255,-1.066583 3.04998,-3.60411 3.04998,-7.837906 0,-1.896683 -0.33353,-4.253734 -0.74118,-5.237888 -1.88489,-4.550517 -9.31959,-4.517235 -11.24636,0.05034 -0.99747,2.364616 -0.99832,8.008477 -10e-4,10.371316 1.33732,3.170121 5.53256,4.415738 8.93912,2.654135 z M 185.37421,98.14681 c -5.00383,-1.86778 -6.85045,-4.40354 -6.42572,-8.82377 0.50822,-5.28903 3.9718,-7.2474 13.45089,-7.60536 l 6.61175,-0.24969 -0.33626,-1.74265 c -0.73274,-3.7973 -5.32393,-4.91157 -9.53942,-2.31517 -2.6938,1.65915 -7.74893,1.98868 -8.30433,0.54133 -0.69399,-1.80852 1.10326,-4.50212 3.91829,-5.87246 2.31737,-1.12808 3.56486,-1.3224 8.57081,-1.33511 5.03074,-0.0128 6.2327,0.16933 8.50517,1.28846 1.45556,0.71683 3.21317,2.09781 3.9058,3.06884 1.20098,1.68373 1.25933,2.48704 1.25933,12.36697 v 10.60145 l -3.18663,0.16668 c -2.61659,0.13688 -3.30267,-0.0191 -3.83544,-0.87223 -0.63127,-1.01084 -0.70834,-1.00948 -2.84982,0.0501 -2.83471,1.40249 -8.93105,1.78281 -11.74442,0.73266 z m 11.78903,-6.18238 c 1.43804,-0.74364 1.81222,-0.57604 1.7367,-2.83665 v -1.93857 h -4.74276 c -3.99879,0 -4.9178,0.17505 -5.85869,1.11594 -1.4297,1.4297 -1.41073,2.49506 0.0708,3.97656 1.00726,1.00726 1.63057,1.14089 4.12201,0.88375 1.6144,-0.16662 3.71681,-0.70708 4.67199,-1.20103 z m 73.25887,5.88103 c -5.66265,-1.95575 -8.47146,-6.33115 -8.47146,-13.19636 0,-8.50664 4.34553,-13.20305 12.96102,-14.00758 7.15656,-0.66829 13.06311,1.8418 15.61584,6.63623 1.04677,1.966 1.26659,3.25038 1.26659,7.40059 0,5.96642 -1.18968,8.80622 -4.77816,11.40571 -3.96221,2.87021 -11.1686,3.63515 -16.59383,1.76141 z m 9.8907,-5.32921 c 2.06255,-1.06658 3.04998,-3.60411 3.04998,-7.83791 0,-1.89668 -0.33353,-4.25373 -0.74118,-5.23788 -1.88489,-4.55052 -9.31959,-4.51724 -11.24636,0.0503 -0.99747,2.36461 -0.99831,8.00847 -10e-4,10.37131 1.33732,3.17012 5.53256,4.41574 8.93913,2.65414 z m 21.62621,5.62785 c -4.5178,-1.2772 -7.28999,-4.21196 -6.33339,-6.70482 0.56452,-1.47111 5.94879,-1.23234 7.96446,0.35319 1.29652,1.01984 2.30165,1.25543 5.35605,1.25543 4.0522,0 5.83144,-0.92958 5.1547,-2.69313 -0.3409,-0.88837 -2.11558,-1.53097 -11.09435,-4.01715 -4.60349,-1.27468 -7.55758,-4.19846 -7.55758,-7.48004 0,-3.41661 1.32447,-5.51738 4.36389,-6.92168 2.20719,-1.01978 3.60262,-1.20339 9.02741,-1.18783 7.96232,0.0228 11.22835,1.18514 12.6079,4.48686 1.2439,2.97708 0.77765,3.58472 -2.75065,3.58472 -2.25651,0 -3.40177,-0.3073 -4.57003,-1.22625 -2.18825,-1.72129 -7.31349,-2.08181 -9.09438,-0.63973 -2.05742,1.66599 -1.08187,2.8312 3.44929,4.11985 2.19158,0.62329 5.36476,1.53337 7.05154,2.02241 4.34048,1.25843 7.25561,4.23285 7.25561,7.40317 0,5.56515 -3.46568,7.84697 -12.43872,8.18973 -3.75202,0.14332 -6.61538,-0.0426 -8.39175,-0.54473 z M 139.03516,58.403403 c -0.46869,-1.221395 6.50723,-26.979603 7.84387,-28.963035 1.39464,-2.06951 4.15421,-4.021189 6.93848,-4.907171 2.98344,-0.949364 21.63706,-1.337127 22.68012,-0.471464 0.68802,0.571012 0.82029,3.350878 0.82029,17.239998 0,12.135428 -0.17888,16.738088 -0.66956,17.228779 -0.78266,0.78266 -6.49113,0.887771 -7.67112,0.14125 -0.52565,-0.332546 -0.88965,-1.792217 -1.04146,-4.17624 l -0.23337,-3.665009 h -8.77971 -8.77973 l -0.98601,3.642633 c -0.5959,2.201462 -1.38681,3.857128 -1.99903,4.184778 -1.63772,0.876484 -7.7624,0.68457 -8.12277,-0.254519 z m 28.79726,-21.24318 v -6.416667 l -4.60326,0.0021 c -7.34988,0.0033 -8.26926,0.96775 -10.76949,11.296848 l -0.37142,1.53442 h 7.87208 7.87209 z m 16.44409,21.362292 c -0.15383,-0.400895 -0.21316,-8.384455 -0.13182,-17.741248 l 0.14786,-17.012347 h 3.90581 3.90579 v 17.576085 17.576086 l -3.77396,0.165158 c -2.71446,0.118798 -3.85249,-0.03945 -4.05368,-0.563734 z m 24.3588,-0.298888 c -1.47233,-1.23029 -12.51644,-24.558169 -12.11806,-25.596331 0.45742,-1.192034 6.59449,-1.032652 8.03422,0.208651 0.6229,0.537048 2.54459,4.238748 4.27043,8.226 1.72583,3.987253 3.33367,7.445351 3.57298,7.68466 0.23932,0.239311 2.02489,-3.223176 3.96796,-7.694416 1.94306,-4.471238 3.97982,-8.368738 4.52612,-8.661108 0.5463,-0.292372 2.5163,-0.531585 4.37778,-0.531585 2.94615,0 3.38451,0.136507 3.38451,1.053926 0,1.512427 -11.03732,24.674088 -12.1673,25.532917 -1.43402,1.089907 -6.44804,0.94763 -7.84864,-0.222714 z m 58.21849,0.292578 c -0.15518,-0.404363 -0.2145,-6.504772 -0.13184,-13.556464 l 0.1503,-12.821257 h 3.90579 c 3.62565,0 3.91859,0.09005 4.08411,1.255435 0.0981,0.690488 0.26075,1.255434 0.36152,1.255434 0.10075,0 1.26875,-0.616589 2.59551,-1.3702 2.90743,-1.651454 7.92452,-2.428439 9.14425,-1.416152 0.86219,0.715554 1.12949,4.254896 0.40571,5.371884 -0.22547,0.347949 -2.34383,0.728851 -4.70748,0.84645 -3.83297,0.190702 -4.47991,0.388531 -5.98448,1.830004 l -1.68695,1.616188 -0.1532,8.696781 -0.15318,8.696783 -3.77397,0.165158 c -2.73,0.119473 -3.85201,-0.03822 -4.05609,-0.570044 z M 138.41656,97.14399 c -0.767,-1.09504 -0.89342,-3.46018 -0.89342,-16.71277 0,-13.9231 0.0966,-15.55656 0.98521,-16.65391 0.96877,-1.196388 1.1993,-1.213719 13.80978,-1.038267 12.38509,0.172316 12.92014,0.226234 15.61361,1.573357 3.80485,1.90298 5.30153,4.277 5.30153,8.40927 0,2.64457 -0.25676,2.86663 -1.43036,4.92239 l -1.43036,1.69989 1.9615,1.9615 c 2.15288,2.15288 2.88704,4.63898 2.41317,8.17188 -0.39701,2.95988 -2.57188,5.67883 -5.82305,7.27976 -2.53903,1.25027 -3.30551,1.28651 -16.13986,1.4875 l -13.47432,0.17496 z m 25.88917,-6.60695 c 0.69084,-0.69082 1.11595,-1.8599 1.11595,-3.06884 0,-1.20894 -0.42511,-2.37802 -1.11595,-3.06884 -1.01332,-1.01333 -1.8599,-1.11594 -9.20652,-1.11594 h -8.09058 v 4.18478 4.18478 h 8.09058 c 7.34662,0 8.1932,-0.10262 9.20652,-1.11594 z m -1.38997,-14.72085 c 0.70882,-0.51831 1.05519,-1.45555 1.05519,-2.85524 0,-3.2708 -0.93608,-3.62681 -9.53635,-3.62681 h -7.42597 v 3.62681 3.62681 h 7.42597 c 5.44051,0 7.70809,-0.20629 8.48116,-0.77157 z m 51.30992,21.84857 C 214.0705,97.26039 213.9954,91.64825 214.09384,84.1083 l 0.15029,-12.82126 h 3.90581 c 3.62564,0 3.91858,0.09 4.08409,1.25544 0.0981,0.69048 0.26075,1.25543 0.36153,1.25543 0.10075,0 1.26874,-0.61659 2.5955,-1.3702 2.90744,-1.65145 7.92452,-2.42844 9.14425,-1.41615 0.86219,0.71555 1.1295,4.25489 0.40572,5.37188 -0.22546,0.34795 -2.34383,0.72885 -4.70749,0.84645 -3.83297,0.1907 -6.72649,-0.11704 -5.98448,1.83001 l -1.68693,1.61618 -0.1532,8.69678 -0.1532,8.69679 -3.77396,0.16515 c -2.73001,0.11947 -3.85201,-0.0382 -4.05609,-0.57004 z m 25.10869,0 c -0.15518,-0.40437 -0.2145,-6.50477 -0.13184,-13.55646 l 0.1503,-12.82126 h 3.90579 c 3.62565,0 3.91859,0.09 4.08411,1.25544 0.0981,0.69048 0.26075,1.25543 0.36152,1.25543 0.10075,0 1.26875,-0.61659 2.59551,-1.3702 2.90743,-1.65145 7.92452,-2.42844 9.14425,-1.41615 0.86219,0.71555 1.12949,4.25489 0.40571,5.37188 -0.22547,0.34795 -2.34383,0.72885 -4.70748,0.84645 -3.83297,0.1907 -4.47991,0.38853 -5.98448,1.83001 l -1.68695,1.61618 -0.1532,8.69678 -0.15318,8.69679 -3.77397,0.16515 c -2.73,0.11947 -3.85201,-0.0382 -4.05609,-0.57004 z M 160.57879,18.725649 c 0,-2.149617 1.59796,-7.3114 2.49352,-8.05465 0.42218,-0.350379 1.97978,-0.559723 3.46132,-0.465214 3.52187,0.224661 3.67145,1.248119 0.88138,6.030527 -2.02666,3.473871 -2.21542,3.634048 -4.47606,3.798388 -2.22505,0.16175 -2.36016,0.08682 -2.36016,-1.309051 z"
     id="path27"
     inkscape:connector-curvature="0"
     sodipodi:nodetypes="ssscccsssscscccsscscsccsccsssscscssccccccscssccsccsccscscscscccccscscscsccscccccccscsscscsccscsscccsssccscccccccccscccccccccccccccsccccsscccccscssscsccccsccccsssscccsscccccscccscccscccsccccscssscsscccsccscscssscsccccscsssscss" />
  <path
     style="fill:#7a7a7a;fill-opacity:1;stroke-width:0.10285276"
     d="M 9.937494,103.54409 C 8.765894,103.29353 8.074956,102.71456 7.855043,101.79908 7.792783,101.54005 7.733654,93.95922 7.714212,83.75493 L 7.680672,66.15746 7.92144,65.74293 c 0.325998,-0.56127 0.943632,-1.00539 1.691831,-1.21655 0.594927,-0.16789 0.978535,-0.17467 8.960069,-0.15837 4.586193,0.009 8.781486,0.0437 9.322876,0.0764 1.102839,0.0665 1.681578,0.23325 2.280588,0.65721 0.85672,0.60637 0.819977,0.29368 0.790213,6.72517 -0.0147,3.168 -0.05374,7.86217 -0.08694,10.43149 -0.03321,2.56932 -0.09042,7.87577 -0.127278,11.79212 -0.0368,3.91634 -0.113611,7.33321 -0.170594,7.59306 -0.209468,0.95506 -0.815164,1.52284 -1.944886,1.82317 -0.495795,0.1318 -1.557787,0.15105 -9.36425,0.16981 -6.75706,0.0162 -8.928432,-0.006 -9.335587,-0.0923 z m 10.035331,-2.90682 c 0.458985,-0.10052 0.636827,-0.44542 0.819939,-0.76413 0.242533,-0.42213 0.39309,-0.87058 0.225208,-1.35364 -0.251033,-0.72229 -0.860641,-1.42143 -1.77277,-1.41931 -0.684262,0.002 -1.109585,0.17626 -1.508979,0.66013 -0.326513,0.39557 -0.374852,0.68277 -0.337628,1.23432 0.03455,0.51283 0.268324,1.04421 0.566702,1.33584 0.647969,0.63343 1.015082,0.52408 2.007528,0.30679 z m 7.69876,-6.55088 c 0.115322,-0.10996 0.262167,4.56852 0.262167,-21.23598 -9.33e-4,-3.16027 -0.01013,-0.98572 -0.2277,-1.07652 -0.153462,-0.0639 -1.364733,-0.0869 -8.572231,-0.0712 l -8.345499,0.0231 V 83.9363 c 0,7.98236 0.0377,9.97909 0.0838,10.06639 0.07898,0.14953 -1.607295,0.15875 8.3247,0.15875 8.293857,0 8.381264,0.0142 8.474762,-0.0751 z"
     id="path848"
     inkscape:connector-curvature="0"
     sodipodi:nodetypes="scsccsscsssscsscscscscsscccscssscc" />
  <circle
     style="fill:none;fill-opacity:1;stroke:#7a7a7a;stroke-width:0.11514281;stroke-miterlimit:4;stroke-dasharray:none;stroke-opacity:1"
     id="path850"
     cx="19.21352"
     cy="98.938164"
     r="1.8705777" />
  <path
     style="fill:#7a7a7a;fill-opacity:1;stroke-width:0.05089718"
     d="m 14.772391,79.56515 c 0.126444,-0.5384 0.659223,-0.86801 1.177495,-0.72845 0.573306,0.15437 1.525453,1.52681 1.852688,2.67049 0.173006,0.60464 0.226618,1.00159 0.227835,1.6869 0.0022,1.26256 -0.434978,2.51775 -1.216425,3.49214 -0.376758,0.46979 -0.543082,0.62412 -0.778645,0.72253 -0.531046,0.22182 -1.124187,-0.0992 -1.254453,-0.67898 -0.02738,-0.12186 -0.04205,-0.24737 -0.03259,-0.27892 0.0094,-0.0315 0.03108,-0.12063 0.04803,-0.19797 0.01695,-0.0773 0.159826,-0.29267 0.317487,-0.47852 0.70539,-0.83151 1.034407,-1.67067 1.034407,-2.63828 0,-0.9027 -0.372357,-1.87027 -0.985942,-2.56197 -0.197062,-0.22215 -0.344319,-0.43862 -0.363553,-0.53442 -0.01778,-0.0886 -0.03948,-0.19539 -0.04821,-0.23738 -0.0088,-0.042 0.0011,-0.14871 0.02189,-0.23717 z m 2.397302,-2.11695 c 0.117456,-0.22248 0.416695,-0.43722 0.665564,-0.47761 0.364387,-0.0591 0.596423,0.0564 1.047392,0.52156 0.990233,1.02137 1.724044,2.46266 2.057247,4.04068 0.164524,0.77917 0.166753,2.32486 0.0046,3.13307 -0.227018,1.13095 -0.644346,2.13861 -1.276361,3.08184 -0.461181,0.68828 -1.05643,1.32921 -1.339751,1.44257 -0.291106,0.11648 -0.635894,0.0663 -0.910281,-0.13245 -0.251523,-0.18221 -0.353651,-0.40527 -0.353651,-0.77242 0,-0.30996 0.09861,-0.49076 0.504464,-0.92489 0.736752,-0.78809 1.334549,-2.02612 1.536011,-3.18106 0.08681,-0.49769 0.08755,-1.65341 0.0013,-2.13769 -0.190351,-1.06952 -0.673326,-2.11909 -1.366184,-2.96892 -0.68604,-0.84146 -0.675951,-0.82426 -0.673393,-1.14856 0.0014,-0.18229 0.03862,-0.35401 0.103076,-0.47612 z m 1.879078,-1.77917 c 0.167937,-0.5571 0.892068,-0.83803 1.382279,-0.53626 0.386931,0.23819 1.341222,1.40472 1.868046,2.28351 1.482757,2.47336 1.936812,5.50835 1.247266,8.33692 -0.407753,1.67264 -1.236445,3.27728 -2.388016,4.62404 -0.561885,0.65712 -0.80343,0.82605 -1.181145,0.82605 -0.349565,0 -0.595223,-0.11598 -0.77691,-0.36678 -0.310771,-0.42901 -0.246752,-0.84351 0.20773,-1.34501 1.051589,-1.1604 1.642841,-2.14601 2.087395,-3.47972 0.370933,-1.11283 0.42678,-1.49246 0.42678,-2.90114 0,-1.10691 -0.01301,-1.30701 -0.115839,-1.7814 -0.358736,-1.65501 -1.098081,-3.13632 -2.154583,-4.31679 -0.615521,-0.68775 -0.726272,-0.93449 -0.603003,-1.34342 z"
     id="path863"
     inkscape:connector-curvature="0"
     sodipodi:nodetypes="cssssssscsscccccssscsssssscaccccsssasssssssc" />
  <path
     style="fill:#7a7a7a;fill-opacity:1;stroke-width:0.02350282"
     d="m 90.81609,78.61098 c -0.22684,-0.0539 -0.4436,-0.22212 -0.54609,-0.42376 -0.023,-0.0452 -0.30493,-0.83558 -0.62653,-1.75631 -0.54478,-1.55969 -0.58734,-1.67127 -0.62312,-1.63344 -0.0211,0.0223 -0.39021,0.51652 -0.8202,1.09822 -0.42998,0.58169 -0.80936,1.08766 -0.84307,1.12436 -0.17782,0.19364 -0.4399,0.17657 -0.59968,-0.0391 l -0.0492,-0.0664 -0.006,-4.99475 c -0.006,-4.89805 -0.005,-4.99674 0.0395,-5.09776 0.0792,-0.17898 0.27485,-0.25852 0.46104,-0.18741 0.0962,0.0367 0.3615,0.34522 3.27027,3.80263 2.2092,2.62589 3.176,3.79165 3.2001,3.85867 0.0827,0.22979 -0.0971,0.48359 -0.34223,0.48321 -0.0359,-5e-5 -0.65766,-0.11523 -1.38154,-0.25594 -0.72389,-0.14071 -1.31803,-0.25425 -1.32031,-0.25232 -0.002,0.002 0.25418,0.7425 0.56993,1.6457 0.31574,0.9032 0.58422,1.70514 0.59661,1.78209 0.089,0.55284 -0.43566,1.04149 -0.97951,0.91224 z"
     id="path876"
     inkscape:connector-curvature="0" />
  <path
     style="fill:#7a7a7a;fill-opacity:1;stroke:#7a7a7a;stroke-width:2.9937129;stroke-linecap:butt;stroke-linejoin:round;stroke-miterlimit:4.5;stroke-dasharray:none;stroke-opacity:1"
     d="M 21.741096,59.267644 H 24.42232 V 33.197071 l 73.97355,0.325318 V 81.98801 L 35.619841,81.66269 v 2.29532 H 54.397348 C 51.716489,95.11542 47.516197,96.75402 43.50905,99.75371 H 76.920289 C 70.190243,96.18209 67.215866,87.84497 66.592793,84.11137 H 100.6379 V 30.901749 H 21.791462 Z"
     id="path878"
     inkscape:connector-curvature="0"
     sodipodi:nodetypes="ccccccccccccccc" />
  <path
     style="fill:#7a7a7a;fill-opacity:1;stroke-width:0.47621208"
     d="m 54.9023,69.98614 c -0.199718,-0.33077 9.97106,-27.243402 10.798154,-28.572721 0.408584,-0.656668 3.450875,-0.822696 3.830156,-0.209024 0.131286,0.212433 -2.248958,6.855591 -5.289419,14.762573 L 58.713058,70.3433 h -1.797553 c -0.988654,0 -1.894595,-0.16071 -2.013205,-0.35716 z m -11.031543,-5.74197 -9.04803,-4.648404 -0.145434,-1.729712 -0.14543,-1.729712 8.717247,-4.444664 c 4.794489,-2.444564 9.092269,-4.51314 9.550624,-4.596836 0.681916,-0.124518 0.833371,0.199465 0.833371,1.782682 v 1.934856 l -7.023242,3.517882 -7.023243,3.517882 7.023243,3.501745 7.023242,3.501751 v 2.03151 c 0,1.11734 -0.160722,2.02654 -0.357159,2.02048 -0.196438,-0.006 -4.428772,-2.10283 -9.405189,-4.65946 z m 26.905986,2.63898 v -2.03151 l 7.023239,-3.501751 7.023238,-3.501745 -7.023238,-3.517882 -7.023239,-3.517882 v -1.822367 c 0,-1.002301 0.120059,-1.942429 0.266809,-2.089174 0.146738,-0.146744 4.379076,1.842673 9.405188,4.420927 l 9.13838,4.687733 v 1.758418 1.758417 L 80.53909,64.2125 c -4.976425,2.57739 -9.208752,4.68977 -9.405197,4.69417 -0.196434,0.005 -0.35715,-0.90618 -0.35715,-2.02352 z"
     id="path910"
     inkscape:connector-curvature="0"
     sodipodi:nodetypes="cscscscscccssscccccscsscccccssscccscs" />
</svg>
