<?xml version="1.0" encoding="UTF-8" standalone="no"?>
<!-- Created with Inkscape (http://www.inkscape.org/) -->

<svg
   xmlns:dc="http://purl.org/dc/elements/1.1/"
   xmlns:cc="http://creativecommons.org/ns#"
   xmlns:rdf="http://www.w3.org/1999/02/22-rdf-syntax-ns#"
   xmlns:svg="http://www.w3.org/2000/svg"
   xmlns="http://www.w3.org/2000/svg"
   xmlns:sodipodi="http://sodipodi.sourceforge.net/DTD/sodipodi-0.dtd"
   xmlns:inkscape="http://www.inkscape.org/namespaces/inkscape"
   version="1.1"
   id="svg2"
   width="108"
   height="86"
   viewBox="0 0 108 86"
   sodipodi:docname="logo-alvaro-barros-imagem.svg"
   inkscape:version="0.92.5 (2060ec1f9f, 2020-04-08)">
  <metadata
     id="metadata8">
    <rdf:RDF>
      <cc:Work
         rdf:about="">
        <dc:format>image/svg+xml</dc:format>
        <dc:type
           rdf:resource="http://purl.org/dc/dcmitype/StillImage" />
        <dc:title></dc:title>
      </cc:Work>
    </rdf:RDF>
  </metadata>
  <defs
     id="defs6" />
  <sodipodi:namedview
     pagecolor="#ffffff"
     bordercolor="#666666"
     borderopacity="1"
     objecttolerance="10"
     gridtolerance="10"
     guidetolerance="10"
     inkscape:pageopacity="0"
     inkscape:pageshadow="2"
     inkscape:window-width="1366"
     inkscape:window-height="696"
     id="namedview4"
     showgrid="false"
     inkscape:zoom="1.3272727"
     inkscape:cx="86.252184"
     inkscape:cy="60.878233"
     inkscape:window-x="0"
     inkscape:window-y="0"
     inkscape:window-maximized="1"
     inkscape:current-layer="svg2" />
  <path
     style="fill:#000000"
     d=""
     id="path12"
     inkscape:connector-curvature="0" />
  <path
     style="fill:#7a7a7a;fill-opacity:1;stroke-width:0.10285276"
     d="M 9.937494,81.54409 C 8.765894,81.29353 8.074956,80.71456 7.855043,79.79908 7.792783,79.54005 7.733654,71.95922 7.714212,61.75493 L 7.680672,44.15746 7.92144,43.74293 c 0.325998,-0.56127 0.943632,-1.00539 1.691831,-1.21655 0.594927,-0.16789 0.978535,-0.17467 8.960069,-0.15837 4.586193,0.009 8.781486,0.0437 9.322876,0.0764 1.102839,0.0665 1.681578,0.23325 2.280588,0.65721 0.85672,0.60637 0.819977,0.29368 0.790213,6.72517 -0.0147,3.168 -0.05374,7.86217 -0.08694,10.43149 -0.03321,2.56932 -0.09042,7.87577 -0.127278,11.79212 -0.0368,3.91634 -0.113611,7.33321 -0.170594,7.59306 -0.209468,0.95506 -0.815164,1.52284 -1.944886,1.82317 -0.495795,0.1318 -1.557787,0.15105 -9.36425,0.16981 -6.75706,0.0162 -8.928432,-0.006 -9.335587,-0.0923 z m 10.035331,-2.90682 c 0.458985,-0.10052 0.636827,-0.44542 0.819939,-0.76413 0.242533,-0.42213 0.39309,-0.87058 0.225208,-1.35364 -0.251033,-0.72229 -0.860641,-1.42143 -1.77277,-1.41931 -0.684262,0.002 -1.109585,0.17626 -1.508979,0.66013 -0.326513,0.39557 -0.374852,0.68277 -0.337628,1.23432 0.03455,0.51283 0.268324,1.04421 0.566702,1.33584 0.647969,0.63343 1.015082,0.52408 2.007528,0.30679 z m 7.69876,-6.55088 c 0.115322,-0.10996 0.262167,4.56852 0.262167,-21.23598 -9.33e-4,-3.16027 -0.01013,-0.98572 -0.2277,-1.07652 -0.153462,-0.0639 -1.364733,-0.0869 -8.572231,-0.0712 l -8.345499,0.0231 V 61.9363 c 0,7.98236 0.0377,9.97909 0.0838,10.06639 0.07898,0.14953 -1.607295,0.15875 8.3247,0.15875 8.293857,0 8.381264,0.0142 8.474762,-0.0751 z"
     id="path848"
     inkscape:connector-curvature="0"
     sodipodi:nodetypes="scsccsscsssscsscscscscsscccscssscc" />
  <circle
     style="fill:none;fill-opacity:1;stroke:#7a7a7a;stroke-width:0.11514281;stroke-miterlimit:4;stroke-dasharray:none;stroke-opacity:1"
     id="path850"
     cx="19.21352"
     cy="76.938164"
     r="1.8705777" />
  <path
     style="fill:#7a7a7a;fill-opacity:1;stroke-width:0.05089718"
     d="m 14.772391,57.56515 c 0.126444,-0.5384 0.659223,-0.86801 1.177495,-0.72845 0.573306,0.15437 1.525453,1.52681 1.852688,2.67049 0.173006,0.60464 0.226618,1.00159 0.227835,1.6869 0.0022,1.26256 -0.434978,2.51775 -1.216425,3.49214 -0.376758,0.46979 -0.543082,0.62412 -0.778645,0.72253 -0.531046,0.22182 -1.124187,-0.0992 -1.254453,-0.67898 -0.02738,-0.12186 -0.04205,-0.24737 -0.03259,-0.27892 0.0094,-0.0315 0.03108,-0.12063 0.04803,-0.19797 0.01695,-0.0773 0.159826,-0.29267 0.317487,-0.47852 0.70539,-0.83151 1.034407,-1.67067 1.034407,-2.63828 0,-0.9027 -0.372357,-1.87027 -0.985942,-2.56197 -0.197062,-0.22215 -0.344319,-0.43862 -0.363553,-0.53442 -0.01778,-0.0886 -0.03948,-0.19539 -0.04821,-0.23738 -0.0088,-0.042 0.0011,-0.14871 0.02189,-0.23717 z m 2.397302,-2.11695 c 0.117456,-0.22248 0.416695,-0.43722 0.665564,-0.47761 0.364387,-0.0591 0.596423,0.0564 1.047392,0.52156 0.990233,1.02137 1.724044,2.46266 2.057247,4.04068 0.164524,0.77917 0.166753,2.32486 0.0046,3.13307 -0.227018,1.13095 -0.644346,2.13861 -1.276361,3.08184 -0.461181,0.68828 -1.05643,1.32921 -1.339751,1.44257 -0.291106,0.11648 -0.635894,0.0663 -0.910281,-0.13245 -0.251523,-0.18221 -0.353651,-0.40527 -0.353651,-0.77242 0,-0.30996 0.09861,-0.49076 0.504464,-0.92489 0.736752,-0.78809 1.334549,-2.02612 1.536011,-3.18106 0.08681,-0.49769 0.08755,-1.65341 0.0013,-2.13769 -0.190351,-1.06952 -0.673326,-2.11909 -1.366184,-2.96892 -0.68604,-0.84146 -0.675951,-0.82426 -0.673393,-1.14856 0.0014,-0.18229 0.03862,-0.35401 0.103076,-0.47612 z m 1.879078,-1.77917 c 0.167937,-0.5571 0.892068,-0.83803 1.382279,-0.53626 0.386931,0.23819 1.341222,1.40472 1.868046,2.28351 1.482757,2.47336 1.936812,5.50835 1.247266,8.33692 -0.407753,1.67264 -1.236445,3.27728 -2.388016,4.62404 -0.561885,0.65712 -0.80343,0.82605 -1.181145,0.82605 -0.349565,0 -0.595223,-0.11598 -0.77691,-0.36678 -0.310771,-0.42901 -0.246752,-0.84351 0.20773,-1.34501 1.051589,-1.1604 1.642841,-2.14601 2.087395,-3.47972 0.370933,-1.11283 0.42678,-1.49246 0.42678,-2.90114 0,-1.10691 -0.01301,-1.30701 -0.115839,-1.7814 -0.358736,-1.65501 -1.098081,-3.13632 -2.154583,-4.31679 -0.615521,-0.68775 -0.726272,-0.93449 -0.603003,-1.34342 z"
     id="path863"
     inkscape:connector-curvature="0"
     sodipodi:nodetypes="cssssssscsscccccssscsssssscaccccsssasssssssc" />
  <path
     style="fill:#7a7a7a;fill-opacity:1;stroke-width:0.02350282"
     d="m 90.81609,56.61098 c -0.22684,-0.0539 -0.4436,-0.22212 -0.54609,-0.42376 -0.023,-0.0452 -0.30493,-0.83558 -0.62653,-1.75631 -0.54478,-1.55969 -0.58734,-1.67127 -0.62312,-1.63344 -0.0211,0.0223 -0.39021,0.51652 -0.8202,1.09822 -0.42998,0.58169 -0.80936,1.08766 -0.84307,1.12436 -0.17782,0.19364 -0.4399,0.17657 -0.59968,-0.0391 l -0.0492,-0.0664 -0.006,-4.99475 c -0.006,-4.89805 -0.005,-4.99674 0.0395,-5.09776 0.0792,-0.17898 0.27485,-0.25852 0.46104,-0.18741 0.0962,0.0367 0.3615,0.34522 3.27027,3.80263 2.2092,2.62589 3.176,3.79165 3.2001,3.85867 0.0827,0.22979 -0.0971,0.48359 -0.34223,0.48321 -0.0359,-5e-5 -0.65766,-0.11523 -1.38154,-0.25594 -0.72389,-0.14071 -1.31803,-0.25425 -1.32031,-0.25232 -0.002,0.002 0.25418,0.7425 0.56993,1.6457 0.31574,0.9032 0.58422,1.70514 0.59661,1.78209 0.089,0.55284 -0.43566,1.04149 -0.97951,0.91224 z"
     id="path876"
     inkscape:connector-curvature="0" />
  <path
     style="fill:#7a7a7a;fill-opacity:1;stroke:#7a7a7a;stroke-width:2.9937129;stroke-linecap:butt;stroke-linejoin:round;stroke-miterlimit:4.5;stroke-dasharray:none;stroke-opacity:1"
     d="M 21.741096,37.267644 H 24.42232 V 11.197071 l 73.97355,0.325318 V 59.98801 L 35.619841,59.66269 v 2.29532 H 54.397348 C 51.716489,73.11542 47.516197,74.75402 43.50905,77.75371 H 76.920289 C 70.190243,74.18209 67.215866,65.84497 66.592793,62.11137 H 100.6379 V 8.901749 H 21.791462 Z"
     id="path878"
     inkscape:connector-curvature="0"
     sodipodi:nodetypes="ccccccccccccccc" />
  <path
     style="fill:#7a7a7a;fill-opacity:1;stroke-width:0.47621208"
     d="m 54.9023,47.98614 c -0.199718,-0.33077 9.97106,-27.243402 10.798154,-28.572721 0.408584,-0.656668 3.450875,-0.822696 3.830156,-0.209024 0.131286,0.212433 -2.248958,6.855591 -5.289419,14.762573 L 58.713058,48.3433 h -1.797553 c -0.988654,0 -1.894595,-0.16071 -2.013205,-0.35716 z m -11.031543,-5.74197 -9.04803,-4.648404 -0.145434,-1.729712 -0.14543,-1.729712 8.717247,-4.444664 c 4.794489,-2.444564 9.092269,-4.51314 9.550624,-4.596836 0.681916,-0.124518 0.833371,0.199465 0.833371,1.782682 v 1.934856 l -7.023242,3.517882 -7.023243,3.517882 7.023243,3.501745 7.023242,3.501751 v 2.03151 c 0,1.11734 -0.160722,2.02654 -0.357159,2.02048 -0.196438,-0.006 -4.428772,-2.10283 -9.405189,-4.65946 z m 26.905986,2.63898 v -2.03151 l 7.023239,-3.501751 7.023238,-3.501745 -7.023238,-3.517882 -7.023239,-3.517882 v -1.822367 c 0,-1.002301 0.120059,-1.942429 0.266809,-2.089174 0.146738,-0.146744 4.379076,1.842673 9.405188,4.420927 l 9.13838,4.687733 v 1.758418 1.758417 L 80.53909,42.2125 c -4.976425,2.57739 -9.208752,4.68977 -9.405197,4.69417 -0.196434,0.005 -0.35715,-0.90618 -0.35715,-2.02352 z"
     id="path910"
     inkscape:connector-curvature="0"
     sodipodi:nodetypes="cscscscscccssscccccscsscccccssscccscs" />
</svg>
