<?xml version="1.0" encoding="UTF-8" standalone="no"?>
<!-- Created with Inkscape (http://www.inkscape.org/) -->

<svg
   xmlns:dc="http://purl.org/dc/elements/1.1/"
   xmlns:cc="http://creativecommons.org/ns#"
   xmlns:rdf="http://www.w3.org/1999/02/22-rdf-syntax-ns#"
   xmlns:svg="http://www.w3.org/2000/svg"
   xmlns="http://www.w3.org/2000/svg"
   xmlns:sodipodi="http://sodipodi.sourceforge.net/DTD/sodipodi-0.dtd"
   xmlns:inkscape="http://www.inkscape.org/namespaces/inkscape"
   width="118.865mm"
   height="135.351mm"
   viewBox="0 0 118.865 135.351"
   version="1.1"
   id="svg8"
   inkscape:version="0.92.5 (2060ec1f9f, 2020-04-08)"
   sodipodi:docname="bell.svg">
  <defs
     id="defs2" />
  <sodipodi:namedview
     id="base"
     pagecolor="#ffffff"
     bordercolor="#666666"
     borderopacity="1.0"
     inkscape:pageopacity="0.0"
     inkscape:pageshadow="2"
     inkscape:zoom="0.5"
     inkscape:cx="-138.68"
     inkscape:cy="140.14261"
     inkscape:document-units="mm"
     inkscape:current-layer="layer1"
     showgrid="false"
     inkscape:window-width="1366"
     inkscape:window-height="696"
     inkscape:window-x="0"
     inkscape:window-y="0"
     inkscape:window-maximized="1" />
  <metadata
     id="metadata5">
    <rdf:RDF>
      <cc:Work
         rdf:about="">
        <dc:format>image/svg+xml</dc:format>
        <dc:type
           rdf:resource="http://purl.org/dc/dcmitype/StillImage" />
        <dc:title></dc:title>
      </cc:Work>
    </rdf:RDF>
  </metadata>
  <g
     inkscape:label="Camada 1"
     inkscape:groupmode="layer"
     id="layer1"
     transform="translate(0,-161.649)">
    <path
       style="fill:#000000;stroke-width:0.26458332"
       d="m 57.41006,296.93185 c -3.13933,-0.44594 -6.40618,-1.96553 -8.69578,-4.0449 -1.80692,-1.641 -3.73895,-4.82342 -4.39359,-7.23708 l -0.34086,-1.25678 H 23.36822 c -22.0626003,0 -21.6506413,0.0237 -22.84357532,-1.31417 -0.350126,-0.39267 -0.529167,-0.96767 -0.529167,-1.69946 0,-1.01469 0.442336,-1.72584 5.35781202,-8.61394 l 5.3578123,-7.50794 v -22.15421 c 0,-12.95693 0.111117,-23.29172 0.267655,-24.89422 1.386232,-14.19093 8.749273,-26.7813 20.502133,-35.05745 3.12183,-2.19833 7.28757,-4.40339 10.64948,-5.63711 1.55278,-0.56982 1.65365,-0.65796 1.65365,-1.44503 0,-1.3692 0.73681,-3.85921 1.76485,-5.96419 0.68813,-1.40899 1.49917,-2.50525 2.8403,-3.83914 6.18104,-6.14773 15.84394,-6.15311 21.98962,-0.0123 2.74359,2.74144 4.62606,6.75613 4.62606,9.86587 0,1.03855 0.0245,1.0653 1.52136,1.66012 11.16615,4.43722 20.59678,13.10562 25.7473,23.66627 2.54289,5.21396 4.16596,10.87052 4.73396,16.49834 0.16844,1.66885 0.27656,11.44342 0.27658,25.00312 l 4e-5,22.26311 5.58064,7.27605 c 3.06936,4.00182 5.69662,7.57245 5.83835,7.93474 0.3866,0.98815 0.0485,2.19826 -0.8563,3.06526 l -0.80773,0.77395 -21.11671,0.0722 -21.11672,0.0722 -0.33524,1.25068 c -1.26157,4.70639 -5.26382,8.90989 -10.01322,10.51673 -1.81163,0.61292 -5.37457,0.99674 -7.0471,0.75915 z m 3.72172,-5.94708 c 2.03628,-0.37289 3.81075,-1.35043 5.25593,-2.89545 1.09997,-1.17594 2.43106,-3.35592 2.19393,-3.59305 -0.0606,-0.0606 -4.23928,-0.0788 -9.28603,-0.0405 l -9.17591,0.0696 0.67915,1.36271 c 1.2414,2.49085 3.98602,4.54695 6.81486,5.10527 1.58463,0.31276 1.76558,0.31232 3.51807,-0.009 z m 48.79807,-12.60171 c 0,-0.0313 -1.76584,-2.35302 -3.92409,-5.15937 -2.15824,-2.80636 -4.05544,-5.34794 -4.21597,-5.64796 -0.20433,-0.38185 -0.32612,-7.88264 -0.40599,-25.00312 -0.12174,-26.09775 -0.0925,-25.48676 -1.47386,-30.80763 -3.75102,-14.44869 -15.69078,-26.30643 -30.25696,-30.04912 -6.9969,-1.79781 -14.83508,-1.75226 -21.76792,0.12651 -14.44611,3.91483 -26.23592,15.8294 -29.87111,30.1872 -1.307064,5.16246 -1.305963,5.13842 -1.399991,30.55936 -0.04872,13.16963 -0.1441,24.19357 -0.211971,24.49763 -0.06787,0.30407 -1.852335,2.96472 -3.965477,5.91256 -2.11314,2.94785 -3.8420753,5.37797 -3.8420753,5.40028 0,0.0223 22.8004643,0.0406 50.6677043,0.0406 27.86724,0 50.66771,-0.0256 50.66771,-0.0569 z M 26.22079,266.65691 c -1.81164,-0.54243 -2.6718,-2.39366 -1.88378,-4.05428 0.82169,-1.73158 -1.47399,-1.62516 35.05743,-1.62516 36.58566,0 34.23368,-0.11076 35.06994,1.65153 0.81784,1.72347 -0.06,3.48149 -2.01906,4.04333 -1.13191,0.32463 -65.13859,0.30972 -66.22453,-0.0154 z m -0.0461,-35.48496 c -0.44458,-0.1172 -1.09943,-0.52273 -1.45521,-0.90117 -0.57564,-0.6123 -0.65715,-0.96757 -0.74009,-3.22568 -0.11157,-3.03701 0.31927,-7.47846 1.05582,-10.88445 2.34211,-10.83042 8.14325,-18.91768 16.62598,-23.17797 3.08278,-1.54826 7.38581,-2.89515 8.55104,-2.67656 1.23915,0.23247 2.07217,1.20494 2.22976,2.60301 0.20092,1.78259 -0.66658,2.63871 -3.57165,3.52481 -9.8321,2.99897 -16.08263,10.3343 -18.34564,21.52955 -0.30955,1.53138 -0.56976,4.20644 -0.65814,6.76607 -0.0804,2.32833 -0.26811,4.55495 -0.41714,4.94803 -0.46366,1.22298 -1.8699,1.86469 -3.27473,1.49436 z m 32.82291,-56.6233 c 2.99717,-0.0121 5.33657,0.12401 7.01146,0.40792 1.38245,0.23434 2.60284,0.42656 2.71198,0.42714 0.36461,0.002 0.20431,-0.64713 -0.55514,-2.24789 -1.86262,-3.92599 -6.19467,-6.17908 -10.41068,-5.41457 -2.08522,0.37812 -3.38971,1.04819 -5.0516,2.59485 -1.17788,1.09619 -2.83331,3.83873 -2.83394,4.69492 -1.4e-4,0.20125 0.69549,0.17773 2.3149,-0.0782 1.27331,-0.20128 4.33917,-0.37413 6.81302,-0.38412 z"
       id="path826"
       inkscape:connector-curvature="0" />
  </g>
</svg>
