<?xml version="1.0" encoding="UTF-8" standalone="no"?>
<!-- Created with Inkscape (http://www.inkscape.org/) -->

<svg
   xmlns:dc="http://purl.org/dc/elements/1.1/"
   xmlns:cc="http://creativecommons.org/ns#"
   xmlns:rdf="http://www.w3.org/1999/02/22-rdf-syntax-ns#"
   xmlns:svg="http://www.w3.org/2000/svg"
   xmlns="http://www.w3.org/2000/svg"
   xmlns:sodipodi="http://sodipodi.sourceforge.net/DTD/sodipodi-0.dtd"
   xmlns:inkscape="http://www.inkscape.org/namespaces/inkscape"
   width="146.49699mm"
   height="100.625mm"
   viewBox="0 0 146.49699 100.625"
   version="1.1"
   id="svg854"
   inkscape:version="0.92.5 (2060ec1f9f, 2020-04-08)"
   sodipodi:docname="message.svg">
  <defs
     id="defs848" />
  <sodipodi:namedview
     id="base"
     pagecolor="#ffffff"
     bordercolor="#666666"
     borderopacity="1.0"
     inkscape:pageopacity="0.0"
     inkscape:pageshadow="2"
     inkscape:zoom="0.49497475"
     inkscape:cx="543.51659"
     inkscape:cy="86.710884"
     inkscape:document-units="mm"
     inkscape:current-layer="layer1"
     showgrid="false"
     width="146.497mm"
     height="100.625mm"
     inkscape:window-width="1366"
     inkscape:window-height="696"
     inkscape:window-x="0"
     inkscape:window-y="0"
     inkscape:window-maximized="1" />
  <metadata
     id="metadata851">
    <rdf:RDF>
      <cc:Work
         rdf:about="">
        <dc:format>image/svg+xml</dc:format>
        <dc:type
           rdf:resource="http://purl.org/dc/dcmitype/StillImage" />
        <dc:title></dc:title>
      </cc:Work>
    </rdf:RDF>
  </metadata>
  <g
     inkscape:label="Camada 1"
     inkscape:groupmode="layer"
     id="layer1"
     transform="translate(0,-196.375)">
    <path
       style="fill:#000000;stroke-width:0.26458332"
       d="m 33.048845,287.52254 c -0.76472,-0.84748 -0.611429,0.80618 -1.73867,-18.75567 -0.46731,-8.10968 -0.998731,-15.24497 -1.180931,-15.85622 -0.1822,-0.61125 -0.621728,-1.50853 -0.976738,-1.99397 -0.355,-0.48543 -6.823481,-5.73609 -14.37441,-11.66814 -9.2832303,-7.29297 -13.89473032,-11.06831 -14.24091032,-11.65872 -1.10077993,-1.87735 -0.43040997,-4.422 1.45138002,-5.5093 1.61782,-0.93477 140.9647643,-26.10433 142.3087943,-25.70454 1.16125,0.34542 2.28741,1.94205 2.2013,3.12092 -0.0346,0.47333 -2.13061,4.87088 -5.43994,11.4132 -2.96103,5.85375 -9.03298,17.88031 -13.49324,26.72566 -4.46025,8.84536 -11.10859,22.02239 -14.77408,29.28229 -3.66551,7.25991 -8.37949,16.60257 -10.47555,20.7615 -2.09605,4.15892 -3.99582,7.75512 -4.22172,7.99157 -1.13145,1.18426 -2.66271,1.59822 -4.24649,1.14798 -0.79389,-0.22571 -4.84622,-3.28281 -16.66807,-12.57458 -8.590544,-6.75204 -15.699742,-12.29295 -15.798252,-12.31314 -0.0986,-0.0199 -5.63332,3.68354 -12.299611,8.2305 -6.666299,4.54698 -12.477251,8.33874 -12.913221,8.42615 -1.09755,0.22004 -2.34369,-0.20557 -3.119641,-1.06549 z m 3.208181,-1.4809 c 0.14391,-0.22288 2.833799,-5.22996 5.977542,-11.12684 4.908939,-9.20799 5.855629,-10.83591 6.705888,-11.53127 0.54451,-0.44533 7.93487,-5.57589 16.42305,-11.40127 8.488174,-5.82537 17.844834,-12.25039 20.792574,-14.27784 2.94773,-2.02746 14.4897,-9.95079 25.6488,-17.60744 11.15911,-7.65664 20.36235,-14.01406 20.45165,-14.12761 0.0893,-0.11355 -9.81712,4.37579 -22.01429,9.97631 -12.19716,5.60051 -34.73313,15.94342 -50.079913,22.98424 -15.346791,7.04083 -27.88574,12.88348 -27.864341,12.98368 0.45461,2.12812 1.23004,13.41815 2.0442,29.7629 0.0998,2.00338 0.248939,3.81785 0.331439,4.03217 0.223969,0.5818 1.279411,0.80375 1.583401,0.33297 z m 13.86906,-9.3568 c 5.0736,-3.43894 9.151612,-6.36527 9.06222,-6.50297 -0.308309,-0.47495 -6.745989,-5.34264 -7.273229,-5.49947 -0.820129,-0.24395 -1.709079,0.39795 -2.475871,1.7878 -1.857769,3.3673 -8.625048,15.96577 -8.685879,16.17027 -0.038,0.12781 -0.02029,0.24694 0.0394,0.26469 0.0597,0.0178 4.259721,-2.78138 9.33332,-6.22032 z M 95.25505,294.6528 c 0.39271,-0.0547 0.91574,-0.36495 1.16229,-0.68943 0.24655,-0.32447 3.195969,-6.04566 6.55427,-12.71374 3.3583,-6.66807 9.43086,-18.71209 13.49457,-26.76447 4.06373,-8.05237 11.20128,-22.20186 15.86122,-31.44328 4.65995,-9.24143 9.02302,-17.88107 9.6957,-19.1992 0.67269,-1.31812 1.20982,-2.42372 1.19363,-2.45689 -0.0162,-0.0332 -14.23291,9.69611 -31.59269,21.62061 -17.35979,11.92448 -37.5083,25.76363 -44.774464,30.75366 l -13.21122,9.07276 5.166891,4.05096 c 10.17047,7.97387 20.948473,16.44322 27.986433,21.99173 3.93544,3.10257 7.289,5.69408 7.45235,5.75889 0.16333,0.0649 0.61831,0.0731 1.01102,0.0184 z M 61.287158,235.88093 c 84.077552,-38.58614 80.557842,-36.96579 80.599312,-37.1052 0.019,-0.0638 -5.38413,0.87455 -12.00692,2.0852 -6.62277,1.21064 -37.7045,6.83525 -69.070494,12.49913 -31.365979,5.66387 -57.2961603,10.46505 -57.6226003,10.66929 -0.82474,0.516 -1.08823,1.6115 -0.58297,2.42387 0.23108,0.37153 2.63837,2.40547 5.34953,4.51986 14.3471693,11.18908 21.5769793,16.93334 22.3265993,17.73898 0.459811,0.49419 0.971251,0.8628 1.136542,0.81916 0.165298,-0.0437 13.607241,-6.18627 29.871001,-13.65029 z"
       id="path837"
       inkscape:connector-curvature="0"
       sodipodi:nodetypes="csccscsscsscsccscscccssscscsscsccsssssssccscsccsscssccssssccsscs" />
  </g>
</svg>
