<?xml version="1.0" encoding="UTF-8" standalone="no"?>
<svg
   xmlns:dc="http://purl.org/dc/elements/1.1/"
   xmlns:cc="http://creativecommons.org/ns#"
   xmlns:rdf="http://www.w3.org/1999/02/22-rdf-syntax-ns#"
   xmlns:svg="http://www.w3.org/2000/svg"
   xmlns="http://www.w3.org/2000/svg"
   xmlns:sodipodi="http://sodipodi.sourceforge.net/DTD/sodipodi-0.dtd"
   xmlns:inkscape="http://www.inkscape.org/namespaces/inkscape"
   version="1.1"
   id="svg2"
   width="159"
   height="27"
   viewBox="0 0 159 27"
   sodipodi:docname="logo.svg"
   inkscape:version="1.0.1 (3bc2e813f5, 2020-09-07)">
  <metadata
     id="metadata8">
    <rdf:RDF>
      <cc:Work
         rdf:about="">
        <dc:format>image/svg+xml</dc:format>
        <dc:type
           rdf:resource="http://purl.org/dc/dcmitype/StillImage" />
        <dc:title></dc:title>
      </cc:Work>
    </rdf:RDF>
  </metadata>
  <defs
     id="defs6" />
  <sodipodi:namedview
     pagecolor="#ffffff"
     bordercolor="#666666"
     borderopacity="1"
     objecttolerance="10"
     gridtolerance="10"
     guidetolerance="10"
     inkscape:pageopacity="0"
     inkscape:pageshadow="2"
     inkscape:window-width="1366"
     inkscape:window-height="704"
     id="namedview4"
     showgrid="false"
     inkscape:zoom="4.1594135"
     inkscape:cx="27.124467"
     inkscape:cy="9.736745"
     inkscape:window-x="0"
     inkscape:window-y="0"
     inkscape:window-maximized="1"
     inkscape:current-layer="g10" />
  <g
     inkscape:groupmode="layer"
     inkscape:label="Image"
     id="g10">
    <text
       xml:space="preserve"
       style="font-style:normal;font-variant:normal;font-weight:bold;font-stretch:normal;font-size:85.3333px;line-height:1.25;font-family:Manjari;-inkscape-font-specification:'Manjari Bold'"
       x="2.4379809"
       y="19.579388"
       id="text841"><tspan
         sodipodi:role="line"
         id="tspan839"
         x="2.4379809"
         y="19.579388" /></text>
    <path
       style="fill:#48a598;fill-opacity:1;stroke-width:0.235797"
       d="m 8.0983862,22.748732 c -2.64329,-0.804053 -4.4786,-3.371049 -4.4786,-6.264081 0,-2.592623 1.54996,-5.034116 3.81425,-6.008184 1.68691,-0.7256882 3.8262698,-0.5836082 5.0293198,0.334015 l 0.82407,0.62855 v -0.60149 c 0,-0.600235 0.004,-0.601491 2.12216,-0.601491 h 2.12217 v 6.2486 6.248592 h -2.12217 -2.12216 v -0.626031 c 0,-0.586179 -0.0268,-0.60176 -0.42127,-0.244789 -1.05377,0.953649 -3.2215798,1.356633 -4.7677698,0.886309 z m 4.2182998,-3.701146 c 1.8262,-1.279129 1.45418,-4.565309 -0.61471,-5.429741 -2.9058298,-1.214131 -5.1643798,2.80089 -2.8675798,5.097689 0.59497,0.594969 0.90466,0.716562 1.8249498,0.716562 0.64307,0 1.33883,-0.161411 1.65734,-0.38451 z m 10.6375,3.494842 c -1.36022,-0.450283 -2.59287,-1.147059 -2.59287,-1.465662 0,-0.103105 0.32835,-0.759135 0.72966,-1.457842 l 0.72968,-1.27039 1.30782,0.659681 c 1.63523,0.824825 3.36353,0.922824 3.36353,0.190721 0,-0.351788 -0.48605,-0.711379 -1.94531,-1.439184 -1.06993,-0.533619 -2.23467,-1.242007 -2.58831,-1.574202 -1.77428,-1.666632 -1.21401,-4.689727 1.06051,-5.722237 1.72177,-0.7815952 5.01599,-0.4984792 6.64887,0.571422 l 0.55917,0.366384 -0.7044,1.300509 -0.70438,1.300508 -0.95043,-0.484868 c -1.25099,-0.638208 -2.85875,-0.725673 -2.97495,-0.161842 -0.0627,0.304419 0.35293,0.620376 1.64045,1.246971 2.49324,1.213389 3.20714,1.759775 3.7486,2.868972 0.8459,1.732884 0.0586,3.907567 -1.75035,4.834891 -1.36021,0.697273 -3.8641,0.803302 -5.57729,0.236168 z m 13.44139,0.161708 c -0.68625,-0.273644 -1.57923,-1.065486 -1.96154,-1.739365 -0.14716,-0.259369 -0.3231,-2.010161 -0.391,-3.890629 l -0.12344,-3.41905 -0.88424,-0.07315 -0.88424,-0.07315 v -1.636344 -1.636336 h 0.94319 0.94319 V 8.9878408 4.9894598 l 1.78992,0.01065 c 1.13717,0 2.35197,0.01635 2.44151,0.01635 0.0896,0 0.0129,2.295784 0.0129,3.333283 v 1.8863752 h 2.12216 2.12217 v 1.650569 1.650578 h -2.12217 -2.12216 v 2.548685 c 0,3.135891 0.1577,3.43742 1.73237,3.312186 1.09507,-0.08709 1.1124,-0.07744 1.32611,0.739231 0.5904,2.256156 0.64924,2.055363 -0.72166,2.462484 -1.38996,0.412767 -3.32943,0.4607 -4.22307,0.104352 z m 23.933188,-0.142561 c -1.720699,-0.591943 -3.501273,-2.403865 -3.986335,-4.056507 -0.499557,-1.702076 -0.473897,-2.801876 0.101239,-4.339076 0.572216,-1.529379 1.810869,-2.87011 3.279126,-3.549349 1.553195,-0.7185262 5.33011,-0.7172202 6.854567,0.0025 4.835894,2.28271 4.9248,9.125317 0.150407,11.575936 -1.582209,0.812117 -4.601208,0.985092 -6.399007,0.36662 z m 4.739506,-3.93118 c 0.704166,-0.704175 0.801709,-0.949436 0.801709,-2.015984 0,-2.054764 -0.95483,-3.171538 -2.711655,-3.171538 -1.756828,0 -2.711657,1.116774 -2.711657,3.171538 0,1.066548 0.09753,1.311809 0.801701,2.015984 0.684313,0.684304 0.963991,0.801701 1.909956,0.801701 0.945955,0 1.225634,-0.117397 1.909946,-0.801701 z M 45.119906,16.484651 v -6.2486 h 2.12217 2.12217 v 1.214358 1.214359 l 0.67998,-0.938692 c 1.166156,-1.609833 3.182073,-2.1718682 4.813984,-1.342147 0.41505,0.211031 0.786431,0.410837 0.825298,0.444015 0.03885,0.03321 -0.325589,0.861145 -0.809893,1.839916 l -0.880562,1.77958 -0.652121,-0.337227 c -1.373579,-0.710301 -2.728721,-0.172535 -3.480947,1.381366 -0.42694,0.881936 -0.495739,1.455508 -0.495739,4.132865 v 3.108799 h -2.12217 -2.12217 z"
       id="path931-9"
       sodipodi:nodetypes="cssscsscccccsccccsscssscssccssccccccscscssccccccccccsscccccccssscccccsscsccsssssssccccccsscscssscccc" />
    <path
       style="fill:#762d93;fill-opacity:1;stroke-width:0.235797"
       d="m 101.00209,22.748732 c -2.643298,-0.804053 -4.478605,-3.371049 -4.478605,-6.264081 0,-2.592623 1.549966,-5.034116 3.814255,-6.008184 1.68691,-0.7256882 3.82627,-0.5836082 5.02933,0.334015 l 0.82406,0.62855 v -0.60149 c 0,-0.600235 0.004,-0.601491 2.12217,-0.601491 h 2.12216 v 6.2486 6.248592 h -2.12216 -2.12217 v -0.626031 c 0,-0.586179 -0.0268,-0.60176 -0.42127,-0.244789 -1.05377,0.953649 -3.22159,1.356633 -4.76777,0.886309 z m 4.2183,-3.701146 c 1.82621,-1.279129 1.45418,-4.565309 -0.6147,-5.429741 -2.90584,-1.214131 -5.16439,2.80089 -2.86759,5.097689 0.59496,0.594969 0.90465,0.716562 1.82494,0.716562 0.64308,0 1.33884,-0.161411 1.65735,-0.38451 z m 11.81748,3.65655 c -0.68624,-0.273644 -1.57923,-1.065486 -1.96154,-1.739365 -0.14714,-0.259369 -0.32309,-2.010161 -0.39099,-3.890629 l -0.12344,-3.41905 -0.88423,-0.07315 -0.88424,-0.07315 v -1.636344 -1.636336 h 0.94318 0.94318 V 8.9878408 5.0721148 l 2.07879,0.04896 c 1.13304,0.02669 2.08686,0.02659 2.1764,0.02659 0.0896,0 -0.0109,2.164579 -0.0109,3.202078 v 1.8863752 h 2.12216 2.12216 v 1.650569 1.650578 h -2.12216 -2.12216 v 2.548685 c 0,3.135891 0.15772,3.43742 1.73238,3.312186 1.09505,-0.08709 1.11239,-0.07744 1.32609,0.739231 0.59041,2.256156 0.64925,2.055363 -0.72166,2.462484 -1.38994,0.412767 -3.32941,0.4607 -4.22306,0.104352 z m 12.1218,-0.15119 c -2.89351,-1.034711 -4.54854,-3.629803 -4.27286,-6.699887 0.15312,-1.705303 1.15895,-3.590406 2.39303,-4.484974 2.33051,-1.6893672 6.05719,-1.7899952 8.55995,-0.231138 l 0.52781,0.328766 -0.95945,1.367782 -0.95943,1.367782 -1.05375,-0.466119 c -0.73925,-0.327013 -1.27794,-0.416879 -1.80499,-0.301116 -1.65661,0.363856 -2.29083,1.250645 -2.29083,3.203181 0,1.040601 0.10152,1.292975 0.8017,1.993172 0.67054,0.670534 0.96953,0.800336 1.82742,0.793351 0.56416,-0.0042 1.29099,-0.159997 1.61521,-0.345342 0.32423,-0.185337 0.69559,-0.339485 0.82529,-0.342544 0.12969,-0.0034 0.64803,0.588184 1.15188,1.313865 1.02032,1.469547 1.03999,1.413667 -0.79819,2.267271 -1.48302,0.688678 -3.9984,0.795364 -5.56279,0.23595 z M 73.179659,16.484651 v -6.2486 h 2.122165 2.122165 v 0.751501 0.751502 l 0.648438,-0.618599 c 1.689081,-1.6113652 4.370163,-1.5093132 6.237872,0.237434 l 0.637719,0.596418 0.829572,-0.72837 c 2.634599,-2.3132152 7.012709,-1.192464 7.905962,2.023838 0.133949,0.482298 0.244132,2.813388 0.244857,5.18019 l 0.0017,4.303278 H 91.807945 89.68578 v -4.024029 c 0,-2.213229 -0.105297,-4.220785 -0.233987,-4.461252 -0.328672,-0.614123 -1.666445,-1.019195 -2.41991,-0.732726 -1.22694,0.466481 -1.354646,0.962508 -1.354646,5.261942 v 3.956065 h -2.122165 -2.122166 v -4.024029 c 0,-2.213229 -0.105296,-4.220785 -0.233985,-4.461252 -0.328673,-0.614123 -1.666446,-1.019195 -2.41991,-0.732726 -1.226941,0.466481 -1.354636,0.962508 -1.354636,5.261942 v 3.956065 h -2.12218 -2.122165 z m 65.787131,-3.183251 0.0777,-11.2483992 2.0445,0.01877 2.12216,-0.03527 v 5.767799 3.9347522 l 0.64844,-0.618599 c 2.31109,-2.2047572 6.49046,-0.995337 7.35825,2.12932 0.13395,0.482298 0.24414,2.813388 0.24486,5.18019 l 0.002,4.303278 h -2.12217 -2.12215 v -4.024029 c 0,-2.213229 -0.1053,-4.220785 -0.234,-4.461252 -0.32866,-0.614123 -1.66644,-1.019195 -2.4199,-0.732726 -1.22695,0.466481 -1.35464,0.962508 -1.35464,5.261942 v 3.956065 h -2.12217 -2.12216 z"
       id="path931-4"
       sodipodi:nodetypes="sssscsscccccscscsssccsscccccccccssscccccccsscsccsssscccsssscscsssccccccsscssccccsssscccssssccccccccccssccccsssscccc" />
  </g>
</svg>
