<?xml version="1.0" encoding="UTF-8" standalone="no"?>
<!-- Created with Inkscape (http://www.inkscape.org/) -->

<svg
   xmlns:dc="http://purl.org/dc/elements/1.1/"
   xmlns:cc="http://creativecommons.org/ns#"
   xmlns:rdf="http://www.w3.org/1999/02/22-rdf-syntax-ns#"
   xmlns:svg="http://www.w3.org/2000/svg"
   xmlns="http://www.w3.org/2000/svg"
   xmlns:sodipodi="http://sodipodi.sourceforge.net/DTD/sodipodi-0.dtd"
   xmlns:inkscape="http://www.inkscape.org/namespaces/inkscape"
   version="1.1"
   id="svg2"
   width="2500"
   height="2500"
   viewBox="0 0 2500 2500"
   sodipodi:docname="facebook-3.svg"
   inkscape:version="0.92.5 (2060ec1f9f, 2020-04-08)">
  <metadata
     id="metadata8">
    <rdf:RDF>
      <cc:Work
         rdf:about="">
        <dc:format>image/svg+xml</dc:format>
        <dc:type
           rdf:resource="http://purl.org/dc/dcmitype/StillImage" />
        <dc:title></dc:title>
      </cc:Work>
    </rdf:RDF>
  </metadata>
  <defs
     id="defs6" />
  <sodipodi:namedview
     pagecolor="#ffffff"
     bordercolor="#666666"
     borderopacity="1"
     objecttolerance="10"
     gridtolerance="10"
     guidetolerance="10"
     inkscape:pageopacity="0"
     inkscape:pageshadow="2"
     inkscape:window-width="1366"
     inkscape:window-height="696"
     id="namedview4"
     showgrid="false"
     inkscape:zoom="0.0944"
     inkscape:cx="1250"
     inkscape:cy="1250"
     inkscape:window-x="0"
     inkscape:window-y="0"
     inkscape:window-maximized="1"
     inkscape:current-layer="svg2" />
  <path
     style="fill:#000000"
     d="m 1220.5932,2509.9275 c -182.2609,-6.5203 -353.99946,-49.7857 -515.49998,-129.8675 -103.50683,-51.3251 -195.27241,-113.7425 -283,-192.492 -20.77374,-18.6477 -70.03928,-67.9309 -88.94299,-88.9748 -182.98991,-203.7074 -293.32467,-456.3835 -317.45532,-727 -3.72648,-41.7911 -4.54307,-61.7426 -4.54307,-111 0,-49.2574 0.81659,-69.2089 4.54307,-111 C 59.86376,654.25565 393.53477,232.13509 865.09322,75.036307 c 165.80618,-55.238 337.66038,-74.97603954 512.49998,-58.86235 327.4904,30.1824 633.382,191.597553 844.0968,445.419263 162.5933,195.85584 261.3638,435.29157 283.8094,687.99998 3.7233,41.9196 4.5352,61.7912 4.5352,111 0,49.2047 -0.8115,69.0696 -4.5346,111 -22.5199,253.6293 -121.8694,493.7151 -285.5187,689.9779 -26.2013,31.4229 -43.9866,50.7685 -76.8159,83.555 -59.6322,59.5542 -117.4913,107.2476 -185.5722,152.9676 -181.8733,122.1378 -391.3093,193.9381 -611,209.4673 -36.1605,2.556 -91.5974,3.5972 -126,2.3665 z m 189,-821.3343 v -438 h 118.4387 118.4388 l 0.546,-4.25 c 0.3003,-2.3375 5.0419,-67.475 10.5367,-144.75 5.4949,-77.275 10.2181,-142.41248 10.4961,-144.74998 l 0.5054,-4.25 h -132.8816 -132.8816 l 0.2846,-92.75 c 0.3122,-101.70866 0.2128,-99.92359 6.4143,-115.16252 4.0671,-9.99411 7.4035,-15.26694 14.3768,-22.72148 11.839,-12.65595 25.2235,-19.80877 48.7258,-26.03974 5.8551,-1.55232 15.8256,-1.778 100.5,-2.27477 l 94,-0.55149 0.2533,-149.25 0.2532,-149.25 h -151.858 c -94.806,0 -156.7027,0.38563 -164.7533,1.02645 -32.64,2.59813 -55.5498,6.18592 -83.1684,13.02454 -58.3954,14.45925 -106.3371,39.73138 -143.0989,75.43352 -22.1892,21.5496 -36.6572,41.54357 -50.6646,70.01549 -12.8383,26.09565 -20.6909,51.15365 -25.8535,82.5 -4.6933,28.49638 -4.9622,35.2893 -4.6905,118.5 0.1401,42.9 -0.072,105.1125 -0.4707,138.25 l -0.7254,60.25 h -94.86483 -94.8648 l 0.25322,151.24998 0.25323,151.25 97.75,0.2549 97.74998,0.2549 v 434.9951 434.9951 h 180.5 180.5 z"
     id="path817"
     inkscape:connector-curvature="0" />
</svg>
