<?xml version="1.0" encoding="UTF-8" standalone="no"?>
<!-- Created with Inkscape (http://www.inkscape.org/) -->

<svg
   xmlns:dc="http://purl.org/dc/elements/1.1/"
   xmlns:cc="http://creativecommons.org/ns#"
   xmlns:rdf="http://www.w3.org/1999/02/22-rdf-syntax-ns#"
   xmlns:svg="http://www.w3.org/2000/svg"
   xmlns="http://www.w3.org/2000/svg"
   xmlns:sodipodi="http://sodipodi.sourceforge.net/DTD/sodipodi-0.dtd"
   xmlns:inkscape="http://www.inkscape.org/namespaces/inkscape"
   version="1.1"
   id="svg2"
   width="2500"
   height="2500"
   viewBox="0 0 2500 2500"
   sodipodi:docname="twitter-3.svg"
   inkscape:version="0.92.5 (2060ec1f9f, 2020-04-08)">
  <metadata
     id="metadata8">
    <rdf:RDF>
      <cc:Work
         rdf:about="">
        <dc:format>image/svg+xml</dc:format>
        <dc:type
           rdf:resource="http://purl.org/dc/dcmitype/StillImage" />
        <dc:title></dc:title>
      </cc:Work>
    </rdf:RDF>
  </metadata>
  <defs
     id="defs6" />
  <sodipodi:namedview
     pagecolor="#ffffff"
     bordercolor="#666666"
     borderopacity="1"
     objecttolerance="10"
     gridtolerance="10"
     guidetolerance="10"
     inkscape:pageopacity="0"
     inkscape:pageshadow="2"
     inkscape:window-width="835"
     inkscape:window-height="480"
     id="namedview4"
     showgrid="false"
     inkscape:zoom="0.0944"
     inkscape:cx="1250"
     inkscape:cy="1250"
     inkscape:window-x="0"
     inkscape:window-y="0"
     inkscape:window-maximized="0"
     inkscape:current-layer="svg2" />
  <path
     style="fill:#000000"
     d="M 1210,2499.3343 C 1027.7093,2492.8129 856.02698,2449.5618 694.5,2369.4668 590.99317,2318.1417 499.22759,2255.7243 411.5,2176.9748 390.72626,2158.3271 341.46072,2109.0439 322.55701,2088 138.24481,1882.8206 28.252773,1629.4513 4.565864,1355.5 1.3709182,1318.5488 0.55862,1297.1632 0.55862,1250 c 0,-63.7896 2.7805145,-107.4981 10.528283,-165.5 C 55.634691,751.00322 233.16812,449.0565 503,247.86013 670.1305,123.2416 866.90792,42.149595 1074,12.550928 1135.0318,3.8279479 1183.3816,0.54594331 1250.5,0.57004477 1307.0832,0.59036317 1341.0129,2.3991061 1390.805,8.0495034 1755.1249,49.392414 2083.1938,248.77034 2287.5005,553 c 117.3353,174.72194 188.8134,376.67492 207.4057,586 3.7233,41.9196 4.5352,61.7912 4.5352,111 0,49.2088 -0.8119,69.0804 -4.5352,111 -21.1291,237.8865 -111.1055,466.9996 -257.2291,655 -33.3437,42.8994 -64.072,77.5535 -105.1049,118.5329 -59.6322,59.5542 -117.4913,107.2476 -185.5722,152.9676 -181.8733,122.1378 -391.3093,193.9381 -611,209.4673 -36.1605,2.556 -91.5974,3.5972 -126,2.3665 z m -201.9264,-599.376 c 92.137,-5.2087 174.1389,-20.5712 255.9364,-47.9481 154.5252,-51.7181 291.3726,-145.6269 398.5688,-273.5102 108.9316,-129.9535 184.0115,-292.8514 212.4103,-460.8586 9.661,-57.1542 13.3113,-102.6655 12.8595,-160.32922 l -0.2678,-34.18782 12.4596,-9.46697 c 53.1772,-40.40476 100.7305,-89.39355 139.0806,-143.27911 13.4195,-18.85578 12.8903,-17.83621 8.2197,-15.83664 -43.7371,18.72484 -85.7954,31.96014 -131.3407,41.33163 -15.0355,3.09372 -45.9417,8.12673 -49.9039,8.12673 -1.5419,0 1.5138,-2.5094 9.5693,-7.8584 58.6645,-38.95439 102.966,-95.03725 127.2903,-161.14118 2.2751,-6.18282 3.9895,-11.38853 3.8098,-11.56823 -0.1797,-0.1797 -5.9379,2.85538 -12.7961,6.74462 -50.7885,28.80197 -107.5168,51.12329 -167.3465,65.8471 -30.1004,7.40757 -26.3951,7.71644 -37.6229,-3.13613 -51.687,-49.95954 -112.1181,-79.86001 -184,-91.04074 -12.6609,-1.96932 -18.4318,-2.26119 -45.5,-2.30121 -34.8092,-0.0515 -44.9037,0.93137 -73,7.10751 -126.8063,27.87459 -226.0279,129.98324 -250.9299,258.2313 -7.5577,38.92279 -7.7424,83.04109 -0.5157,123.17452 1.0649,5.91392 2.2114,11.46994 2.5479,12.34674 0.7514,1.9581 -3.2557,2.0649 -22.2071,0.5916 C 1025.0904,986.20311 847.77177,916.18316 700,797.47716 653.32787,759.98514 603.55899,711.24006 568.21948,668.4075 c -6.92975,-8.39906 -7.85257,-9.17983 -9.02045,-7.63187 -0.71554,0.9484 -4.36977,7.79937 -8.12052,15.22437 -16.38118,32.42828 -26.38128,64.03765 -32.11103,101.5 -2.70749,17.70212 -3.77239,56.42374 -2.06833,75.20773 8.57458,94.51833 56.44344,179.94057 132.27489,236.04527 6.45077,4.7727 11.59983,8.8065 11.44237,8.9639 -0.15746,0.1575 -6.09807,-0.1763 -13.20135,-0.7418 -42.57473,-3.3891 -86.26827,-15.5694 -122.61683,-34.1817 -5.66403,-2.9002 -10.70847,-5.4519 -11.20988,-5.6705 -1.28911,-0.5618 0.004,29.7762 1.89097,44.3771 5.30912,41.0728 16.9731,78.0006 35.84673,113.4895 43.80935,82.3767 121.21755,142.8005 211.55196,165.1345 l 13.37801,3.3075 -4.87801,1.27 c -30.54521,7.952 -71.31787,11.6863 -102.37801,9.3765 -14.0977,-1.0484 -33.10802,-3.376 -38.72518,-4.7414 l -2.22518,-0.541 2.33915,6.8522 c 15.80943,46.3114 43.45061,90.244 79.23419,125.9341 56.09808,55.9515 134.65427,91.3283 211.12702,95.0784 7.2875,0.3574 13.25,0.9312 13.25,1.2752 0,0.8831 -22.13975,17.2352 -37,27.3277 -28.31899,19.2331 -69.43988,42.0646 -100.5,55.8005 -73.75184,32.6159 -149.68665,50.9561 -232,56.034 -20.56524,1.2687 -72.32605,0.6687 -90.5,-1.049 -5.775,-0.5459 -13.65,-1.2733 -17.5,-1.6165 l -7,-0.6241 3.5,2.4548 c 14.01091,9.8268 53.0847,31.8444 83,46.7696 114.00631,56.8792 235.55415,89.3532 362.5,96.8492 20.74136,1.2247 88.42715,1.2721 109.5736,0.077 z"
     id="path817"
     inkscape:connector-curvature="0" />
</svg>
