<?xml version="1.0" encoding="UTF-8" standalone="no"?>
<!-- Created with Inkscape (http://www.inkscape.org/) -->

<svg
   xmlns:dc="http://purl.org/dc/elements/1.1/"
   xmlns:cc="http://creativecommons.org/ns#"
   xmlns:rdf="http://www.w3.org/1999/02/22-rdf-syntax-ns#"
   xmlns:svg="http://www.w3.org/2000/svg"
   xmlns="http://www.w3.org/2000/svg"
   xmlns:sodipodi="http://sodipodi.sourceforge.net/DTD/sodipodi-0.dtd"
   xmlns:inkscape="http://www.inkscape.org/namespaces/inkscape"
   width="63.5mm"
   height="122.253mm"
   viewBox="0 0 63.500002 122.253"
   version="1.1"
   id="svg8"
   inkscape:version="0.92.5 (2060ec1f9f, 2020-04-08)"
   sodipodi:docname="aplicativo.svg">
  <defs
     id="defs2" />
  <sodipodi:namedview
     id="base"
     pagecolor="#ffffff"
     bordercolor="#666666"
     borderopacity="1.0"
     inkscape:pageopacity="0.0"
     inkscape:pageshadow="2"
     inkscape:zoom="0.98994949"
     inkscape:cx="125.85641"
     inkscape:cy="228.1011"
     inkscape:document-units="mm"
     inkscape:current-layer="layer1"
     showgrid="false"
     inkscape:window-width="1366"
     inkscape:window-height="696"
     inkscape:window-x="0"
     inkscape:window-y="0"
     inkscape:window-maximized="1" />
  <metadata
     id="metadata5">
    <rdf:RDF>
      <cc:Work
         rdf:about="">
        <dc:format>image/svg+xml</dc:format>
        <dc:type
           rdf:resource="http://purl.org/dc/dcmitype/StillImage" />
        <dc:title></dc:title>
      </cc:Work>
    </rdf:RDF>
  </metadata>
  <g
     inkscape:label="Camada 1"
     inkscape:groupmode="layer"
     id="layer1"
     transform="translate(0,-174.747)">
    <path
       style="fill:#ffffff;stroke:none;stroke-width:0.26458332px;stroke-linecap:butt;stroke-linejoin:miter;stroke-opacity:1;fill-opacity:1"
       d="m 11.22532,176.12735 -3.8085907,0.46772 -2.7395125,1.93771 -1.9377041,2.53906 -0.6681739,2.73951 0.2338608,103.3999 0.9354435,3.97563 2.6392864,3.37428 4.5435815,1.23612 42.094952,-0.26727 3.741772,-0.0668 2.271791,-2.07134 2.27179,-2.87314 0.334086,-3.40769 v -104.5692 l -1.202711,-3.40769 -2.338609,-1.9377 -4.543582,-1.46998 z"
       id="path1029"
       inkscape:connector-curvature="0" />
    <rect
       style="fill:#f89e1b;fill-opacity:1;stroke:#000000;stroke-width:2.81725836;stroke-linecap:butt;stroke-linejoin:round;stroke-miterlimit:4;stroke-dasharray:none;stroke-opacity:1;paint-order:stroke fill markers"
       id="rect1027"
       width="47.968952"
       height="89.486656"
       x="7.8052139"
       y="190.77255" />
    <path
       style="fill:#000000;stroke-width:0.26458332"
       d="M 8.202086,296.55933 C 5.456831,295.82962 3.275942,293.88938 1.899074,290.95181 L 1.190629,289.44033 1.119669,254.80146 C 1.049629,220.60949 1.041949,220.15785 0.524356,219.79531 0.044203,219.459 0,219.11682 0,215.73629 c 0,-3.36434 0.04693,-3.73194 0.529166,-4.14485 0.291042,-0.24919 0.529167,-0.69564 0.529167,-0.99209 0,-0.29646 -0.238125,-0.68773 -0.529167,-0.86949 C 0.040931,209.42495 0,209.11285 0,205.69488 c 0,-3.3771 0.04677,-3.74456 0.529166,-4.1576 0.764823,-0.65486 0.764823,-3.45569 0,-4.11055 C 0.069273,197.03295 0,196.64622 0,194.47251 c 0,-2.15484 0.0694,-2.54974 0.501298,-2.85225 0.451355,-0.31614 0.511082,-0.79867 0.59954,-4.84365 0.09187,-4.20122 0.14391,-4.59053 0.802463,-6.004 0.933598,-2.00381 1.916853,-3.20727 3.520657,-4.30912 2.547635,-1.75028 2.090652,-1.72048 26.315483,-1.71589 17.227996,0.003 22.154149,0.0784 23.332902,0.35583 2.829618,0.66601 5.013084,2.43053 6.500153,5.25293 l 0.736876,1.39856 0.07819,9.85573 c 0.06386,8.04985 0.143512,9.85573 0.434713,9.85573 0.577831,0 0.677724,0.64444 0.677724,4.37226 0,3.22773 -0.04573,3.56726 -0.52579,3.90351 -0.520189,0.36436 -0.526534,0.79373 -0.595313,40.29782 l -0.06952,39.92953 -0.736875,1.39856 c -1.487069,2.8224 -3.670535,4.58691 -6.500153,5.25293 -2.302743,0.54201 -44.809569,0.48608 -46.870261,-0.0617 z m 48.184023,-2.80941 c 1.418048,-0.83363 2.687598,-2.19721 3.344143,-3.59183 0.43544,-0.92495 0.462457,-4.09695 0.462457,-54.29588 0,-50.19893 -0.02702,-53.37093 -0.462457,-54.29588 -0.656545,-1.39462 -1.926095,-2.7582 -3.344143,-3.59183 l -1.220483,-0.7175 -22.886457,-0.0742 c -20.360727,-0.066 -23.008341,-0.0279 -23.990868,0.34495 -1.924113,0.73023 -3.136268,1.81081 -4.023897,3.58712 l -0.824817,1.6506 0.0058,53.07284 c 0.0058,52.74854 0.0091,53.08007 0.542477,54.25595 0.86682,1.91094 1.721522,2.82095 3.470236,3.69479 l 1.644657,0.82185 23.031431,-0.0718 23.031417,-0.0717 z m -26.486301,-0.36544 c -3.994227,-1.73212 -4.138515,-7.12815 -0.243732,-9.11512 2.894052,-1.47644 6.612909,0.46647 7.043947,3.68009 0.213703,1.59327 -0.121034,2.85195 -1.035416,3.89338 -1.601649,1.82418 -3.773794,2.40506 -5.764799,1.54165 z m 3.781705,-2.64053 c 2.056564,-2.05656 0.103259,-5.50075 -2.611522,-4.60479 -2.019768,0.66659 -2.650667,3.05391 -1.192424,4.51215 1.054764,1.05476 2.799337,1.09725 3.803946,0.0926 z M 7.940969,282.7631 C 6.850915,282.55954 5.850975,281.66687 5.551144,280.62965 5.353818,279.94703 5.291749,266.0986 5.346068,234.87509 l 0.07789,-44.77566 0.864925,-0.86496 0.864926,-0.86497 24.341901,-0.0702 c 21.439906,-0.0619 24.43537,-0.0219 25.125909,0.3352 1.70149,0.87988 1.586711,-2.52447 1.586711,47.06199 v 45.10429 l -0.678466,0.80631 c -0.373155,0.44347 -1.117295,0.92819 -1.653645,1.07716 -0.966391,0.26841 -46.518942,0.34335 -47.935254,0.0789 z m 47.833199,-2.50381 c 0.211068,-0.21107 0.3175,-1.36407 0.3175,-3.43958 v -3.12209 H 31.882294 7.67292 v 3.2632 c 0,1.79476 0.07937,3.34257 0.17639,3.43958 0.09701,0.097 10.848355,0.17639 23.891873,0.17639 18.092599,0 23.790764,-0.0753 24.032985,-0.3175 z M 9.525003,258.43888 c 0,-11.85765 0.0428,-13.18948 0.437883,-13.62604 0.40894,-0.45187 1.074626,-0.48385 10.07156,-0.48385 6.134764,0 9.819552,0.0995 10.14545,0.27389 0.495596,0.26523 0.511773,0.69595 0.511773,13.62604 v 13.35215 h 1.058333 1.058333 v -6.0325 c 0,-4.33917 0.08912,-6.12162 0.3175,-6.35 0.45565,-0.45565 20.076016,-0.45565 20.531666,0 0.228378,0.22838 0.3175,2.01083 0.3175,6.35 v 6.0325 h 1.059177 1.05918 l -0.06699,-40.41062 -0.06699,-40.41062 -0.992188,-0.16127 -0.992187,-0.16127 v 15.16258 c 0,14.72001 -0.01495,15.17058 -0.511773,15.43648 -0.325959,0.17444 -4.017555,0.27389 -10.167559,0.27389 -8.425208,0 -9.708773,-0.053 -10.07156,-0.41578 -0.368196,-0.36819 -0.415774,-2.13184 -0.415774,-15.41198 v -14.9962 h -1.058333 -1.058333 v 8.10763 c 0,7.14902 -0.04948,8.12662 -0.418516,8.26823 -0.230182,0.0883 -4.849807,0.1606 -10.265832,0.1606 -7.306247,0 -9.929249,-0.0819 -10.164818,-0.3175 -0.232915,-0.23292 -0.3175,-2.44438 -0.3175,-8.30096 v -7.98346 l -0.859896,0.17587 -0.859895,0.17586 -0.06699,40.40426 -0.06699,40.40426 h 0.926888 0.926886 z m 23.746353,-2.22484 c -0.432797,-0.25208 -0.463021,-1.30162 -0.463021,-16.07862 0,-11.94306 0.07764,-15.88657 0.3175,-16.12643 0.45565,-0.45565 20.076016,-0.45565 20.531666,0 0.239861,0.23986 0.3175,4.18422 0.3175,16.13027 0,15.36284 -0.01455,15.82057 -0.511773,16.08667 -0.691428,0.37004 -19.555208,0.35894 -20.191872,-0.0119 z m 18.322395,-4.47672 v -2.38125 h -8.202083 -8.202083 v 2.38125 2.38125 h 8.202083 8.202083 z m -15.172533,1.10365 c -0.916387,-1.0126 -0.227597,-2.69115 1.104305,-2.69115 0.75729,0 1.632812,0.90017 1.632812,1.67878 0,1.31473 -1.845688,1.99738 -2.737117,1.01237 z m 3.97184,-0.22171 c -0.287483,-0.28748 -0.201131,-1.28053 0.14111,-1.62277 0.211135,-0.21114 1.365335,-0.3175 3.445256,-0.3175 3.069516,0 3.133302,0.0122 3.425566,0.65362 0.565684,1.24154 0.01995,1.46304 -3.604747,1.46304 -1.776939,0 -3.310173,-0.0794 -3.407185,-0.17639 z m 11.465276,-8.35089 v -2.97104 l -2.173213,-2.18456 -2.173211,-2.18456 -3.076828,3.03893 c -1.710632,1.68956 -3.295949,3.03893 -3.57032,3.03893 -0.27142,0 -0.945948,-0.44181 -1.498954,-0.98181 l -1.005462,-0.98181 -1.563716,1.5474 c -1.512856,1.49707 -1.566572,1.59787 -1.651527,3.09896 l -0.08781,1.55156 8.40052,-5.3e-4 8.40052,-4.4e-4 z m -13.503676,-6.0248 c 0.157482,0 0.797078,0.47079 1.42132,1.04619 l 1.134989,1.0462 3.021972,-3.03057 c 1.834343,-1.83956 3.229184,-3.03057 3.549232,-3.03057 0.3004,0 1.355283,0.82249 2.451711,1.91161 l 1.924452,1.9116 v -6.14494 -6.14494 l -8.40052,-1.6e-4 -8.40052,-1.6e-4 0.07418,7.57157 0.07418,7.57157 1.431338,-1.3537 c 0.787235,-0.74453 1.560189,-1.3537 1.717672,-1.3537 z m -0.438682,-3.14845 c -1.832705,-1.14974 -1.674667,-4.02519 0.272256,-4.95362 2.841159,-1.35485 5.501383,2.07799 3.417499,4.41007 -0.960803,1.07523 -2.484462,1.29969 -3.689755,0.54355 z m 2.168401,-2.4078 c 0,-0.21828 -0.267891,-0.43492 -0.595313,-0.48142 -0.458176,-0.0651 -0.595312,0.0458 -0.595312,0.48142 0,0.43559 0.137136,0.54649 0.595312,0.48142 0.327422,-0.0465 0.595313,-0.26314 0.595313,-0.48142 z m -30.238818,8.94597 c -0.243803,-0.2438 -0.320556,-4.07277 -0.320556,-15.99145 0,-13.89348 0.04716,-15.71805 0.415774,-16.08666 0.362887,-0.36289 1.652199,-0.41578 10.135888,-0.41578 7.359571,0 9.829458,0.0803 10.170364,0.33073 0.416681,0.30607 0.445111,1.52423 0.381298,16.33802 l -0.06895,16.00729 -10.196631,0.0692 c -7.70995,0.0523 -10.274807,-0.009 -10.517187,-0.25136 z m 18.729443,-4.18347 v -2.38125 h -8.334374 -8.334375 v 2.38125 2.38125 h 8.334375 8.334374 z m -15.437116,1.10365 c -0.5783,-0.63902 -0.556488,-1.70805 0.04597,-2.25327 1.048917,-0.94926 2.691146,-0.21966 2.691146,1.19559 0,1.35501 -1.828573,2.06161 -2.737116,1.05768 z m 4.120607,-0.35516 c -0.178837,-0.17884 -0.325157,-0.52489 -0.325157,-0.76901 0,-0.89333 0.643401,-1.05734 3.845727,-0.98031 2.622166,0.0631 3.154878,0.14732 3.400705,0.53781 0.212264,0.33718 0.212254,0.58886 -3.5e-5,0.92604 -0.246358,0.39129 -0.77988,0.47445 -3.443803,0.53682 -2.226548,0.0521 -3.247768,-0.0217 -3.477437,-0.25135 z m 11.316509,-8.49339 v -2.98241 l -2.187731,-2.17636 -2.187731,-2.17637 -3.033474,3.0421 c -1.822852,1.82804 -3.241926,3.04211 -3.555801,3.04211 -0.28728,0 -0.974784,-0.44182 -1.527789,-0.98181 l -1.005462,-0.98181 -1.58538,1.56884 c -1.573726,1.5573 -1.585381,1.58008 -1.585381,3.09847 v 1.52964 h 8.334375 8.334374 z m -14.408726,-5.23758 c 0.08288,-0.13411 0.381,-0.3671 0.66248,-0.51774 0.424529,-0.2272 0.706744,-0.0942 1.655331,0.78019 l 1.143547,1.05409 3.021973,-3.03057 c 1.834343,-1.83957 3.229184,-3.03057 3.549232,-3.03057 0.3004,0 1.355283,0.82249 2.451711,1.9116 l 1.924452,1.91161 v -6.01265 -6.01265 h -8.334374 -8.334375 v 7.43057 7.43057 l 1.054661,-0.83531 c 0.580064,-0.45942 1.122476,-0.94504 1.205362,-1.07914 z m 0.31451,-4.19738 c -1.147447,-1.00747 -1.420317,-2.01255 -0.890587,-3.28037 1.199957,-2.8719 5.437579,-2.03639 5.453919,1.07533 0.008,1.52067 -1.01542,2.69064 -2.531398,2.89393 -0.943554,0.12653 -1.203666,0.0383 -2.031934,-0.68889 z m 2.335951,-1.89553 c 0.09857,-0.15948 -0.0021,-0.47123 -0.223578,-0.69277 -0.482217,-0.48221 -0.98274,-0.24325 -0.98274,0.46919 0,0.56198 0.894692,0.7278 1.206318,0.22358 z m 11.758265,52.54518 v -0.66146 h -8.334374 -8.334375 v 0.66146 0.66146 h 8.334375 8.334374 z m 16.933333,-0.79375 c 0.790421,-0.80036 1.658397,-1.45521 1.928833,-1.45521 0.270436,0 1.178235,0.65485 2.017334,1.45521 2.426002,2.31401 2.403832,2.3494 2.403832,-3.83646 v -5.29166 l -8.40052,-2.7e-4 -8.40052,-2.6e-4 0.07677,5.29194 0.07677,5.29193 h 4.430186 4.430186 z m -6.879167,0.2205 c -0.81485,-0.31666 -1.850747,-1.53181 -2.004496,-2.35137 -0.303662,-1.61866 1.075489,-3.29309 2.712376,-3.29309 2.250858,0 3.555224,1.93502 2.743512,4.06998 -0.424133,1.11556 -2.359927,1.99864 -3.451392,1.57448 z m 1.411174,-2.58241 c 0.172852,-0.45044 -0.477356,-1.06318 -0.870418,-0.82025 -0.151895,0.0939 -0.276172,0.40178 -0.276172,0.68423 0,0.60635 0.924044,0.71597 1.14659,0.13602 z m -13.634397,-8.0095 -2.186746,-2.19817 -3.051593,3.04365 c -1.794933,1.79025 -3.263276,3.04364 -3.565631,3.04364 -0.28272,0 -0.966494,-0.44182 -1.519499,-0.98181 l -1.005462,-0.98181 -1.58538,1.56884 c -1.572827,1.55642 -1.585381,1.58092 -1.585381,3.09471 v 1.52586 l 8.268229,0.0699 8.268228,0.0699 0.07499,-3.02829 0.07499,-3.02829 z m -11.178158,-0.60717 c 0.298876,-7.9e-4 0.949582,0.41744 1.446014,0.92962 l 0.902602,0.93125 3.055877,-3.04792 c 1.817666,-1.81292 3.266162,-3.04791 3.574848,-3.04791 0.290113,0 1.367629,0.84299 2.443422,1.91161 l 1.924452,1.9116 v -6.01265 -6.01264 h -8.334374 -8.334375 v 7.49936 7.49937 l 1.389062,-1.28003 c 0.763985,-0.70402 1.633596,-1.28077 1.932472,-1.28166 z m -0.475766,-3.36152 c -3.178661,-2.03572 -0.418708,-6.72947 2.936693,-4.99433 0.865536,0.44759 1.361289,1.42139 1.361289,2.67396 0,2.02238 -2.584548,3.41771 -4.297982,2.32037 z m 2.064716,-2.22175 c 0.233256,-0.37741 -0.538927,-1.1496 -0.916345,-0.91634 -0.159485,0.0986 -0.289973,0.41031 -0.289973,0.69276 0,0.56198 0.894692,0.7278 1.206318,0.22358 z m 34.777014,-37.01627 v -2.38125 h -8.202083 -8.202083 v 2.38125 2.38125 h 8.202083 8.202083 z m -15.172533,1.10364 c -0.894427,-0.98833 -0.232931,-2.69114 1.045432,-2.69114 0.871458,0 1.691685,0.7571 1.691685,1.56149 0,1.41919 -1.802027,2.16292 -2.737117,1.12965 z m 4.11295,-0.36281 c -0.174625,-0.17462 -0.3175,-0.508 -0.3175,-0.74083 0,-0.89575 0.578043,-1.05834 3.762756,-1.05834 3.069516,0 3.133302,0.0122 3.425566,0.65363 0.560657,1.2305 0.01016,1.46304 -3.463634,1.46304 -2.050312,0 -3.196495,-0.10681 -3.407188,-0.3175 z m 11.2655,-8.20715 0.07363,-2.72014 -2.252284,-2.23899 -2.252287,-2.23898 -3.137524,3.09888 c -1.725639,1.70438 -3.274978,3.09888 -3.442975,3.09888 -0.167997,0 -0.788477,-0.43639 -1.378847,-0.96975 l -1.073399,-0.96975 -1.573196,1.55678 c -1.506472,1.49075 -1.573197,1.61324 -1.573202,2.88798 l -3e-6,1.3312 8.268232,-0.058 8.268234,-0.058 z M 38.3611,203.31857 c 0.207929,0 0.829181,0.44052 1.380564,0.97893 l 1.002515,0.97893 3.134201,-3.0956 c 1.72381,-1.70257 3.299126,-3.09559 3.500704,-3.09559 0.201576,0 1.291871,0.91994 2.422877,2.04431 l 2.056373,2.04432 v -6.27765 -6.27765 h -8.40052 -8.40052 v 7.79762 7.79761 l 1.462881,-1.44761 c 0.804584,-0.79619 1.633,-1.44762 1.840925,-1.44762 z m 0.135777,-3.02333 c -1.085493,-0.47037 -1.715357,-1.23949 -1.884929,-2.30166 -0.188251,-1.17918 0.755131,-2.59491 2.060104,-3.09158 0.849384,-0.32328 1.072179,-0.31259 1.925677,0.0924 1.595541,0.75713 2.162982,2.49688 1.335992,4.09611 -0.643136,1.24368 -2.137809,1.76761 -3.436844,1.2047 z m 1.526476,-2.33448 c 0.169386,-0.4856 -0.07611,-0.99219 -0.480835,-0.99219 -0.464825,0 -0.732536,0.4584 -0.548225,0.93871 0.180674,0.47083 0.870966,0.5067 1.02906,0.0535 z m -11.448351,4.43177 v -2.24896 h -8.334374 -8.334375 v 2.24896 2.24896 h 8.334375 8.334374 z m -15.28696,1.30791 c -0.362836,-0.25414 -0.586489,-0.68478 -0.583988,-1.12447 0.005,-0.87291 0.209148,-1.19804 1.021178,-1.62603 0.536328,-0.28268 0.730072,-0.25559 1.322916,0.18499 0.89271,0.66344 1.028639,1.71727 0.313717,2.4322 -0.651061,0.65106 -1.277176,0.69131 -2.073823,0.13331 z m 3.91273,-0.51072 c -0.465519,-0.56092 -0.119132,-1.63039 0.589565,-1.82029 0.774147,-0.20744 4.126434,-0.20744 4.900581,0 0.708697,0.1899 1.055084,1.25937 0.589566,1.82029 -0.250135,0.30139 -0.961316,0.39343 -3.039856,0.39343 -2.078541,0 -2.789722,-0.092 -3.039856,-0.39343 z m 11.374368,-9.06542 1.37e-4,-3.63802 -8.334512,0.0734 -8.334512,0.0734 v 3.5646 3.56459 h 8.334375 8.334374 z m -1.70103,-10.53608 c -0.228677,-0.22868 -0.415774,-0.57736 -0.415774,-0.77486 0,-0.19749 0.187097,-0.54617 0.415774,-0.77485 0.3458,-0.3458 1.182949,-0.41577 4.974166,-0.41577 3.19264,0 4.653521,0.0951 4.875892,0.3175 0.486072,0.48607 0.377788,1.4837 -0.194273,1.78986 -0.293441,0.15704 -2.373569,0.27389 -4.875892,0.27389 -3.614605,0 -4.435527,-0.0714 -4.779893,-0.41577 z"
       id="path1006"
       inkscape:connector-curvature="0"
       sodipodi:nodetypes="cscscscsssccsccssccscssssscscccccscccscccsccccccscscsccscccsscccccscsccccscccssscscscscccsscscccccccscscscccscscscccccccscsscscccccccccccccsscccscscccccssccsscccccccsscccccccccccccccscscscscscscccccccccccccccsccsccccccccccscccscccccccccsscccccccsccscccccscccccccccccscsccccccccccsccccsccccsccssccccccccccsccccccccccscssccscccccccccccssccsscsccccccsccscccccscccscccccccccsccccccccsccccccccccccccccccczccscccczcccccsscsccss" />
  </g>
</svg>
