<?xml version="1.0" encoding="UTF-8" standalone="no"?>
<!-- Created with Inkscape (http://www.inkscape.org/) -->

<svg
   xmlns:dc="http://purl.org/dc/elements/1.1/"
   xmlns:cc="http://creativecommons.org/ns#"
   xmlns:rdf="http://www.w3.org/1999/02/22-rdf-syntax-ns#"
   xmlns:svg="http://www.w3.org/2000/svg"
   xmlns="http://www.w3.org/2000/svg"
   xmlns:sodipodi="http://sodipodi.sourceforge.net/DTD/sodipodi-0.dtd"
   xmlns:inkscape="http://www.inkscape.org/namespaces/inkscape"
   width="108.99mm"
   height="73.818001mm"
   viewBox="0 0 108.99 73.818001"
   version="1.1"
   id="svg8"
   inkscape:version="0.92.5 (2060ec1f9f, 2020-04-08)"
   sodipodi:docname="cartão.svg">
  <defs
     id="defs2" />
  <sodipodi:namedview
     id="base"
     pagecolor="#ffffff"
     bordercolor="#666666"
     borderopacity="1.0"
     inkscape:pageopacity="0.0"
     inkscape:pageshadow="2"
     inkscape:zoom="0.98994949"
     inkscape:cx="-173.25605"
     inkscape:cy="117.35136"
     inkscape:document-units="mm"
     inkscape:current-layer="layer1"
     showgrid="false"
     inkscape:window-width="1366"
     inkscape:window-height="696"
     inkscape:window-x="0"
     inkscape:window-y="0"
     inkscape:window-maximized="1" />
  <metadata
     id="metadata5">
    <rdf:RDF>
      <cc:Work
         rdf:about="">
        <dc:format>image/svg+xml</dc:format>
        <dc:type
           rdf:resource="http://purl.org/dc/dcmitype/StillImage" />
        <dc:title></dc:title>
      </cc:Work>
    </rdf:RDF>
  </metadata>
  <g
     inkscape:label="Camada 1"
     inkscape:groupmode="layer"
     id="layer1"
     transform="translate(0,-223.182)">
    <path
       style="fill:#000000;stroke-width:0.26458332"
       d="m 4.3677369,296.38122 c -0.7276,-0.34033 -1.82096,-1.1613 -2.42968,-1.82437 -2.04837003,-2.23127 -1.93594003,-0.22996 -1.93594003,-34.46105 0,-34.74351 -0.15575,-32.29615 2.20468003,-34.64249 2.49373,-2.47885 -2.39496003,-2.26689 52.2818431,-2.26689 41.897462,0 48.24697,0.0508 49.40806,0.39565 1.59069,0.47239 3.57,2.12502 4.3972,3.67147 l 0.58425,1.09226 0.0734,31.35312 c 0.0824,35.20103 0.22593,32.56687 -1.90056,34.88343 -0.59579,0.64905 -1.67857,1.45854 -2.40617,1.79887 L 103.3219,297 H 54.506277 5.6906569 Z m 99.5097931,-4.50897 0.89958,-0.89958 V 271.63163 252.29059 H 54.50628 4.2354469 v 19.34104 19.34104 l 0.89959,0.89958 0.89958,0.89959 H 54.50628 102.97794 Z m 0.89958,-59.04167 c 0,-2.21398 -0.11057,-3.26967 -0.40135,-3.83198 -0.87647,-1.6949 2.78939,-1.57884 -49.86948,-1.57884 -52.6588731,0 -48.9930131,-0.11606 -49.8694731,1.57884 -0.29079,0.56231 -0.40136,1.618 -0.40136,3.83198 v 3.05584 H 54.50628 104.77711 Z"
       id="path925"
       inkscape:connector-curvature="0"
       sodipodi:nodetypes="ccscscccscccccccccccccccccccscscscccs" />
  </g>
</svg>
