<?xml version="1.0" encoding="UTF-8" standalone="no"?>
<!-- Created with Inkscape (http://www.inkscape.org/) -->

<svg
   xmlns:dc="http://purl.org/dc/elements/1.1/"
   xmlns:cc="http://creativecommons.org/ns#"
   xmlns:rdf="http://www.w3.org/1999/02/22-rdf-syntax-ns#"
   xmlns:svg="http://www.w3.org/2000/svg"
   xmlns="http://www.w3.org/2000/svg"
   xmlns:sodipodi="http://sodipodi.sourceforge.net/DTD/sodipodi-0.dtd"
   xmlns:inkscape="http://www.inkscape.org/namespaces/inkscape"
   width="97.477997mm"
   height="48.682999mm"
   viewBox="0 0 97.477997 48.682999"
   version="1.1"
   id="svg8"
   inkscape:version="0.92.5 (2060ec1f9f, 2020-04-08)"
   sodipodi:docname="dinheiro.svg">
  <defs
     id="defs2" />
  <sodipodi:namedview
     id="base"
     pagecolor="#ffffff"
     bordercolor="#666666"
     borderopacity="1.0"
     inkscape:pageopacity="0.0"
     inkscape:pageshadow="2"
     inkscape:zoom="0.49497475"
     inkscape:cx="-326.18868"
     inkscape:cy="153.41024"
     inkscape:document-units="mm"
     inkscape:current-layer="layer1"
     showgrid="false"
     inkscape:window-width="1366"
     inkscape:window-height="696"
     inkscape:window-x="0"
     inkscape:window-y="0"
     inkscape:window-maximized="1" />
  <metadata
     id="metadata5">
    <rdf:RDF>
      <cc:Work
         rdf:about="">
        <dc:format>image/svg+xml</dc:format>
        <dc:type
           rdf:resource="http://purl.org/dc/dcmitype/StillImage" />
        <dc:title></dc:title>
      </cc:Work>
    </rdf:RDF>
  </metadata>
  <g
     inkscape:label="Camada 1"
     inkscape:groupmode="layer"
     id="layer1"
     transform="translate(0,-248.317)">
    <path
       style="fill:#000000;stroke-width:0.26458332"
       d="m 5.4034318,296.58952 c -0.72603,-0.50854 -0.78003,-1.71362 -0.10419,-2.32524 0.44526,-0.40296 3.36512,-0.43789 36.6039992,-0.43789 h 36.120145 l 8.268609,-17.7117 c 4.54773,-9.74144 8.41514,-17.9121 8.59424,-18.15703 0.40696,-0.55655 1.65342,-0.57872 2.19314,-0.039 0.22348,0.22348 0.40123,0.68484 0.395,1.02526 -0.0159,0.87025 -16.913682,37.02961 -17.568409,37.59445 -0.505574,0.43617 -2.664638,0.46302 -37.225605,0.46302 -32.7780893,0 -36.7515792,-0.0439 -37.2769292,-0.41187 z m -5.08662995,-9.24623 c -0.18153,-0.21873 -0.32538,-0.66522 -0.31967,-0.99219 0.015,-0.8586 16.92093915,-37.01778 17.56555915,-37.57002 0.50909,-0.43611 2.65925,-0.46302 37.00645,-0.46302 22.778934,0 36.717924,0.0958 37.137254,0.25523 1.51091,0.57444 1.55349,0.46156 -7.517722,19.93076 -4.692338,10.07099 -8.713592,18.51925 -8.93612,18.77391 -0.381724,0.43684 -2.501809,0.46302 -37.505152,0.46302 -32.6892592,0 -37.13978915,-0.0473 -37.43059915,-0.39769 z m 8.46210995,-5.03836 -2.50831,-2.52562 -1.11853,2.32719 c -0.61519,1.27995 -1.12121,2.41648 -1.12448,2.52562 -0.003,0.10914 1.62881,0.19844 3.62684,0.19844 h 3.6327992 z m 70.2892032,-10.17437 5.871064,-12.56771 -3.880125,-4.00165 -3.880125,-4.00166 -28.874801,-0.0332 -28.874797,-0.0332 -5.87777,12.6047 -5.8777692,12.6047 4.0588692,4.06522 4.05887,4.06522 28.70276,-0.0673 28.70276,-0.0673 z m -42.130434,10.59268 c -5.13733,-1.10131 -7.81479,-5.52263 -6.6137,-10.92129 1.70576,-7.66704 9.42974,-15.24601 18.054527,-17.71556 2.896158,-0.82926 6.987042,-0.81865 9.147431,0.0237 3.946708,1.5389 5.893292,5.61792 4.889156,10.24511 -1.408959,6.49265 -6.806533,12.73556 -14.038172,16.23676 -1.475872,0.71455 -3.441002,1.49103 -4.366942,1.72552 -2.04573,0.51808 -5.59769,0.72185 -7.0723,0.40573 z m 8.00036,-3.47906 c 3.594537,-1.10839 6.578507,-3.01135 9.38191,-5.98311 8.32108,-8.82078 5.286849,-18.82523 -5.045254,-16.63517 -7.981256,1.69176 -15.646236,9.72163 -15.684056,16.4307 -0.0172,3.04714 1.09256,4.91379 3.63621,6.1163 1.78755,0.84506 5.10242,0.87571 7.71119,0.0713 z m -3.81586,-0.91091 c -0.63441,-0.44436 -0.76713,-1.40496 -0.31169,-2.25596 0.20714,-0.38704 0.174,-0.66252 -0.13229,-1.09981 -0.54635,-0.78003 -0.50694,-2.20803 0.0977,-3.53949 0.57324,-1.26232 1.43303,-1.95328 2.43055,-1.95328 1.11268,0 1.3667,0.5281 0.89587,1.86256 -0.29002,0.82199 -0.32263,1.22298 -0.11603,1.42638 0.43808,0.43128 1.83952,-1.25527 1.83952,-2.21376 0,-0.63812 -0.13417,-0.79802 -0.79053,-0.94218 -1.59266,-0.34981 -2.22966,-2.05115 -1.50445,-4.01816 0.53021,-1.43811 1.98382,-3.25054 3.2067,-3.99829 0.753938,-0.461 1.337609,-1.08128 1.640893,-1.74379 0.258897,-0.56556 0.692081,-1.3097 0.962633,-1.65365 1.257649,-1.59884 3.279217,0.20122 2.293811,2.04247 -0.207137,0.38704 -0.173998,0.66252 0.132291,1.09981 0.224756,0.32089 0.408649,1.10188 0.408649,1.73554 0,0.9206 -0.155405,1.30751 -0.773398,1.9255 -1.307489,1.30749 -3.168957,0.8885 -2.78843,-0.62763 0.389064,-1.55017 -1.247357,-0.558 -1.695429,1.02793 -0.29327,1.03799 -0.11485,1.43143 0.649097,1.43143 0.768712,0 1.620808,0.79197 1.854684,1.72381 0.436861,1.74059 -1.383662,4.88858 -3.637331,6.28954 -0.86735,0.53917 -1.51151,1.19426 -1.86377,1.8954 -1.01912,2.02842 -1.65367,2.38788 -2.79905,1.58563 z m 45.528814,-22.40844 c 0.0748,-0.1819 0.56077,-1.25346 1.07996,-2.38125 l 0.94399,-2.05053 h -3.625826 -3.625824 l 2.370217,2.38125 c 1.303621,1.30969 2.449253,2.38125 2.545863,2.38125 0.0966,0 0.23683,-0.14883 0.31162,-0.33073 z"
       id="path21"
       inkscape:connector-curvature="0"
       sodipodi:nodetypes="ccscscsccsccccscscscccscsccccccccccccccccsscscccccssccccccccsccscccccscscccscccccccccsscc" />
  </g>
</svg>
