<?xml version="1.0" encoding="UTF-8" standalone="no"?>
<svg
   xmlns:dc="http://purl.org/dc/elements/1.1/"
   xmlns:cc="http://creativecommons.org/ns#"
   xmlns:rdf="http://www.w3.org/1999/02/22-rdf-syntax-ns#"
   xmlns:svg="http://www.w3.org/2000/svg"
   xmlns="http://www.w3.org/2000/svg"
   xmlns:sodipodi="http://sodipodi.sourceforge.net/DTD/sodipodi-0.dtd"
   xmlns:inkscape="http://www.inkscape.org/namespaces/inkscape"
   width="2834.65"
   height="2834.649"
   viewBox="49.605 0 2834.65 2834.649"
   version="1.1"
   id="svg6"
   sodipodi:docname="instagram-circle.svg"
   inkscape:version="0.92.5 (2060ec1f9f, 2020-04-08)">
  <metadata
     id="metadata12">
    <rdf:RDF>
      <cc:Work
         rdf:about="">
        <dc:format>image/svg+xml</dc:format>
        <dc:type
           rdf:resource="http://purl.org/dc/dcmitype/StillImage" />
      </cc:Work>
    </rdf:RDF>
  </metadata>
  <defs
     id="defs10" />
  <sodipodi:namedview
     pagecolor="#ffffff"
     bordercolor="#666666"
     borderopacity="1"
     objecttolerance="10"
     gridtolerance="10"
     guidetolerance="10"
     inkscape:pageopacity="0"
     inkscape:pageshadow="2"
     inkscape:window-width="1366"
     inkscape:window-height="696"
     id="namedview8"
     showgrid="false"
     inkscape:zoom="0.08325546"
     inkscape:cx="1417.325"
     inkscape:cy="1417.3245"
     inkscape:window-x="0"
     inkscape:window-y="0"
     inkscape:window-maximized="1"
     inkscape:current-layer="svg6" />
  <circle
     cx="1466.93"
     cy="1417.324"
     r="1417.324"
     fill="#444"
     id="circle2"
     style="fill:#000000;fill-opacity:1" />
  <path
     d="M1892.128 726.379h-850.395c-147.639 0-265.749 118.11-265.749 265.749v850.394c0 147.639 118.11 265.748 265.749 265.748h850.395c147.638 0 265.749-118.109 265.749-265.748V992.127c0-147.638-118.112-265.748-265.749-265.748zm76.772 159.449h29.527V1122.048h-236.221v-236.22H1968.9zm-696.851 389.765c41.338-59.056 118.11-100.395 194.882-100.395s153.544 41.339 194.882 100.395c29.527 41.338 47.244 88.582 47.244 141.732 0 135.826-112.205 242.126-242.126 242.126-129.922 0-242.126-106.299-242.126-242.126-.001-53.15 17.716-100.394 47.244-141.732zm750.001 566.929c0 70.867-59.056 129.922-129.922 129.922h-850.395c-70.866 0-129.922-59.055-129.922-129.922v-566.929h206.693c-17.717 41.338-29.527 94.488-29.527 141.732 0 206.693 171.26 377.953 377.953 377.953s377.953-171.26 377.953-377.953c0-47.244-11.812-100.395-29.527-141.732h206.692l.002 566.929z"
     fill="#fff"
     id="path4" />
</svg>
