<?xml version="1.0" encoding="UTF-8" standalone="no"?>
<!-- Created with Inkscape (http://www.inkscape.org/) -->

<svg
   xmlns:dc="http://purl.org/dc/elements/1.1/"
   xmlns:cc="http://creativecommons.org/ns#"
   xmlns:rdf="http://www.w3.org/1999/02/22-rdf-syntax-ns#"
   xmlns:svg="http://www.w3.org/2000/svg"
   xmlns="http://www.w3.org/2000/svg"
   xmlns:sodipodi="http://sodipodi.sourceforge.net/DTD/sodipodi-0.dtd"
   xmlns:inkscape="http://www.inkscape.org/namespaces/inkscape"
   width="36.441002mm"
   height="30.084mm"
   viewBox="0 0 36.441003 30.084"
   version="1.1"
   id="svg8"
   inkscape:version="0.92.5 (2060ec1f9f, 2020-04-08)"
   sodipodi:docname="investimento.svg">
  <defs
     id="defs2" />
  <sodipodi:namedview
     id="base"
     pagecolor="#ffffff"
     bordercolor="#666666"
     borderopacity="1.0"
     inkscape:pageopacity="0.0"
     inkscape:pageshadow="2"
     inkscape:zoom="1.979899"
     inkscape:cx="-213.99072"
     inkscape:cy="76.629516"
     inkscape:document-units="mm"
     inkscape:current-layer="layer1"
     showgrid="false"
     inkscape:window-width="1366"
     inkscape:window-height="696"
     inkscape:window-x="0"
     inkscape:window-y="0"
     inkscape:window-maximized="1" />
  <metadata
     id="metadata5">
    <rdf:RDF>
      <cc:Work
         rdf:about="">
        <dc:format>image/svg+xml</dc:format>
        <dc:type
           rdf:resource="http://purl.org/dc/dcmitype/StillImage" />
        <dc:title></dc:title>
      </cc:Work>
    </rdf:RDF>
  </metadata>
  <g
     inkscape:label="Camada 1"
     inkscape:groupmode="layer"
     id="layer1"
     transform="translate(0,-266.916)">
    <g
       id="g974"
       transform="translate(77.108016,15.764701)">
      <path
         sodipodi:nodetypes="cccccsscccssssccccccccsccccccccccccccccccccccccccccccccccccccccccccccccsccccccccccccccccccccccccscscscccscssscscccccc"
         inkscape:connector-curvature="0"
         id="path957"
         d="m -72.096851,278.90861 0.0764,-2.31511 1.5875,-0.13229 c 0.89491,-0.0746 1.97927,-0.36316 2.48549,-0.66146 1.09879,-0.64749 2.31585,-2.12881 2.55425,-3.10885 0.15886,-0.65303 0.10626,-0.72761 -0.51314,-0.72761 -0.37958,0 -0.69014,-0.0675 -0.69014,-0.14995 0,-0.0825 0.412,-0.58665 0.91555,-1.1204 l 0.91556,-0.97044 0.93653,0.90772 c 0.660221,0.63991 0.938707,0.98538 0.999352,1.2215 0.03492,0.13595 -0.424155,0.11157 -0.856582,0.11157 -0.61736,0 -0.79375,0.11759 -0.79375,0.52917 0,0.45861 0.17639,0.52917 1.32292,0.52917 h 1.32292 v 4.10104 4.10104 h -5.16968 -5.16968 z m 9.46916,-1.78594 v -3.30729 h -1.09113 c -0.96652,0 -1.21461,0.14029 -2.17257,1.22859 -1.26265,1.43445 -2.76453,2.19702 -4.34307,2.20518 l -1.12448,0.006 v 1.5875 1.5875 h 4.36562 4.36563 z m 1.32291,-3.70417 v -7.81663 l 5.093233,0.0719 5.093229,0.0719 v 7.67291 7.67292 l -5.093229,0.0719 -5.093233,0.0719 z m 9.525003,0 v -7.01146 h -4.365625 -4.365628 v 7.01146 7.01146 h 4.365628 4.365625 z m 1.058334,-3.43958 v -11.24479 h 5.027083 5.027083 v 11.24479 11.24479 h -5.027083 -5.027083 z m 9.260416,0 v -10.45104 h -4.233333 -4.233333 v 10.45104 10.45104 h 4.233333 4.233333 z m -33.602083,7.39094 c 0,-0.0823 0.1238,-0.38101 0.27511,-0.66374 0.22756,-0.42519 0.11527,-0.67862 -0.64963,-1.46622 -2.19616,-2.26131 -2.2316,-6.14639 -0.0776,-8.50213 0.49496,-0.5413 1.24585,-0.81102 1.24585,-0.4475 0,0.0813 -0.34247,0.58731 -0.76105,1.12448 -1.78314,2.28836 -1.77198,5.04073 0.0288,7.09167 l 0.82636,0.94117 0.39305,-0.74996 0.39305,-0.74996 0.45027,1.32291 0.45028,1.32292 -0.95651,0.4434 c -0.99533,0.46139 -1.61797,0.58952 -1.61797,0.33296 z m 9.12813,-9.30021 c -0.82484,-1.53037 -2.46451,-2.5322 -4.36996,-2.67002 l -1.59457,-0.11535 0.26374,0.69368 c 0.31439,0.82692 0.0725,0.86478 -1.34817,0.21102 l -0.96353,-0.44339 0.59861,-1.32292 c 0.57489,-1.27048 0.60607,-1.29521 0.7866,-0.62396 0.17472,0.64969 0.31234,0.70744 1.95241,0.81926 0.97045,0.0662 1.94304,0.18931 2.16132,0.27365 0.27379,0.10579 1.42265,-1.02439 3.70417,-3.64393 1.81901,-2.0885 3.45063,-3.80609 3.62581,-3.81688 0.17519,-0.0108 1.284949,1.4063 2.466139,3.14907 l 2.147618,3.16866 4.118115,-5.21919 c 2.264963,-2.87055 4.235641,-5.36801 4.37928,-5.54991 0.06756,-0.0856 0.237067,-0.31419 0.24866,-0.4024 0.01828,-0.13909 -0.162936,-0.13972 -0.28379,-0.28534 -0.07612,-0.0917 -0.334582,-0.17083 -0.31609,-0.24756 0.03865,-0.16037 0.531242,-0.31035 1.124386,-0.54335 0.607523,-0.23864 1.146943,-0.39153 1.198711,-0.33977 0.05177,0.0518 0.01495,0.58931 -0.08184,1.19454 -0.09304,0.58183 -0.0884,1.06598 -0.242418,1.15589 -0.07515,0.0439 -0.260076,-0.15912 -0.373608,-0.19515 -0.04207,-0.0134 -0.218084,-0.20174 -0.294264,-0.16078 -0.516508,0.27775 -1.755516,2.06898 -4.721731,5.84257 -2.516761,3.2018 -4.660207,5.82145 -4.763209,5.82145 -0.103002,0 -1.168334,-1.42875 -2.367404,-3.175 -1.199075,-1.74625 -2.221805,-3.175 -2.272735,-3.175 -0.0509,0 -1.47441,1.55214 -3.1633,3.44919 l -3.07071,3.44919 0.93782,0.82342 c 1.34936,1.18475 2.15505,2.86251 1.37382,2.86082 -0.1819,-2.6e-4 -0.56885,-0.44252 -0.85989,-0.98251 z"
         style="fill:#000000;stroke-width:0.26458332" />
      <path
         sodipodi:nodetypes="cccsccsccsccscccccccscccccsscscccccccc"
         inkscape:connector-curvature="0"
         id="path970"
         d="m -71.325824,274.00271 v -0.44494 l -0.152214,-8.2e-4 c -0.349548,-0.002 -1.112337,-0.27637 -1.112337,-0.39918 0,-0.0328 0.0441,-0.17491 0.09799,-0.31574 l 0.09799,-0.25606 0.195021,0.109 c 0.401782,0.22456 1.012123,0.3128 1.406384,0.20334 0.09986,-0.0277 0.266449,-0.1296 0.370203,-0.22639 0.168296,-0.15698 0.191012,-0.20453 0.21061,-0.44085 0.04241,-0.51139 -0.133236,-0.70123 -1.051633,-1.13658 -0.894337,-0.42394 -1.208741,-0.74715 -1.265461,-1.3009 -0.06476,-0.6322 0.366668,-1.2311 1.026506,-1.42498 l 0.270491,-0.0795 4.7e-5,-0.43556 4.6e-5,-0.43557 0.264737,0.0141 0.264737,0.0141 -0.0099,0.40407 -0.0099,0.40407 0.271238,0.0339 c 0.250356,0.0313 0.658552,0.15905 0.801258,0.25079 0.0474,0.0304 0.03824,0.0969 -0.04353,0.31593 -0.05695,0.15253 -0.107099,0.2829 -0.111435,0.28972 -0.0043,0.007 -0.129001,-0.043 -0.277034,-0.11085 -0.383555,-0.17559 -0.952739,-0.20942 -1.257272,-0.0747 -0.271179,0.11995 -0.407736,0.32696 -0.407736,0.6181 0,0.40715 0.185114,0.58013 1.004559,0.93868 0.950424,0.41586 1.310941,0.83876 1.311041,1.53788 4.7e-5,0.47174 -0.129575,0.76733 -0.475015,1.08304 -0.185562,0.1696 -0.332654,0.25645 -0.544142,0.32129 l -0.289835,0.0889 -0.0134,0.45055 -0.0134,0.45055 h -0.279315 -0.279316 v -0.44494 z"
         style="fill:#000000;stroke:#000000;stroke-width:0.347;stroke-miterlimit:4;stroke-dasharray:none;stroke-opacity:1" />
    </g>
  </g>
</svg>
