<?xml version="1.0" encoding="UTF-8" standalone="no"?>
<!-- Created with Inkscape (http://www.inkscape.org/) -->

<svg
   xmlns:dc="http://purl.org/dc/elements/1.1/"
   xmlns:cc="http://creativecommons.org/ns#"
   xmlns:rdf="http://www.w3.org/1999/02/22-rdf-syntax-ns#"
   xmlns:svg="http://www.w3.org/2000/svg"
   xmlns="http://www.w3.org/2000/svg"
   xmlns:sodipodi="http://sodipodi.sourceforge.net/DTD/sodipodi-0.dtd"
   xmlns:inkscape="http://www.inkscape.org/namespaces/inkscape"
   width="70.399002mm"
   height="43.069mm"
   viewBox="0 0 70.399002 43.069"
   version="1.1"
   id="svg8"
   inkscape:version="0.92.5 (2060ec1f9f, 2020-04-08)"
   sodipodi:docname="transferência.svg">
  <defs
     id="defs2" />
  <sodipodi:namedview
     id="base"
     pagecolor="#ffffff"
     bordercolor="#666666"
     borderopacity="1.0"
     inkscape:pageopacity="0.0"
     inkscape:pageshadow="2"
     inkscape:zoom="0.7"
     inkscape:cx="-172.07406"
     inkscape:cy="157.82286"
     inkscape:document-units="mm"
     inkscape:current-layer="layer1"
     showgrid="false"
     inkscape:window-width="1366"
     inkscape:window-height="696"
     inkscape:window-x="0"
     inkscape:window-y="0"
     inkscape:window-maximized="1" />
  <metadata
     id="metadata5">
    <rdf:RDF>
      <cc:Work
         rdf:about="">
        <dc:format>image/svg+xml</dc:format>
        <dc:type
           rdf:resource="http://purl.org/dc/dcmitype/StillImage" />
        <dc:title></dc:title>
      </cc:Work>
    </rdf:RDF>
  </metadata>
  <g
     inkscape:label="Camada 1"
     inkscape:groupmode="layer"
     id="layer1"
     transform="translate(0,-253.931)">
    <path
       style="fill:#000000;stroke-width:0.26458332"
       d="m 22.840426,296.72071 c -0.3809,-0.29074 -7.054467,-11.60432 -8.445861,-14.31812 -0.644779,-1.25758 -0.480547,-2.06137 0.574713,-2.81278 0.764156,-0.54413 0.777737,-0.58962 0.396243,-1.32735 -0.601959,-1.16406 -0.480553,-1.83767 0.497451,-2.76004 0.797546,-0.75219 0.853834,-0.89458 0.529166,-1.33859 -0.199824,-0.27327 -0.363315,-0.89008 -0.363315,-1.37067 0,-1.05675 0.603308,-1.53511 5.110533,-4.05213 1.693794,-0.94589 3.082308,-1.81161 3.085587,-1.92383 0.0033,-0.11221 -2.345521,-0.17174 -5.219557,-0.13229 l -5.225521,0.0717 v 2.5798 c 0,1.41889 -0.101117,2.57975 -0.224704,2.57969 -0.123587,-6e-5 -0.897493,-0.40937 -1.719791,-0.90958 -0.822299,-0.50021 -3.8526212,-2.27221 -6.7340472,-3.93779 l -5.23896,-3.02831 1.34503,-0.82761 c 0.73976,-0.45518 1.48995,-0.85607 1.66708,-0.89086 0.17713,-0.0348 0.38159,-0.13823 0.45435,-0.22986 0.12941,-0.16298 3.45471,-2.14399 5.820833,-3.46769 0.6548439,-0.36635 1.9462042,-1.09748 2.8696892,-1.62475 0.923485,-0.52726 1.697391,-0.95872 1.719791,-0.95879 0.0224,-7e-5 0.04073,1.22032 0.04073,2.71198 v 2.7121 l 9.730258,0.0694 c 8.639609,0.0616 9.825879,0.0201 10.583333,-0.3703 0.469191,-0.24184 3.388273,-1.9092 6.486846,-3.70524 3.098575,-1.79605 5.91522,-3.33618 6.25921,-3.42252 1.320001,-0.3313 1.197274,-0.50196 7.52882,10.46926 1.681453,2.9136 2.670908,4.90812 2.670908,5.38395 0,0.50188 -0.271913,1.00984 -0.809284,1.51182 -0.715391,0.66827 -0.772292,0.8251 -0.490463,1.3517 0.561308,1.04881 0.353591,2.12774 -0.551913,2.86678 -0.805802,0.65766 -0.815602,0.69221 -0.414499,1.46144 0.916892,1.75841 0.559152,2.15756 -4.594807,5.12665 -2.338343,1.34707 -4.251534,2.49949 -4.251534,2.56094 0,0.0614 2.38125,0.11173 5.291666,0.11173 h 5.291667 v -2.77813 c 0,-1.52796 0.04662,-2.77812 0.103592,-2.77812 0.05698,0 1.604804,0.84479 3.439615,1.8773 1.963484,1.10492 3.26476,1.9926 3.162819,2.15755 -0.09872,0.15973 -0.04798,0.20285 0.118007,0.10027 0.293502,-0.1814 6.940674,3.42263 6.926895,3.75569 -0.0041,0.0984 -1.045869,0.76435 -2.315105,1.47979 -3.881646,2.18801 -9.132368,5.22339 -10.17338,5.88111 -0.542583,0.34281 -1.048599,0.62329 -1.124479,0.62329 -0.07588,0 -0.137964,-1.19472 -0.137964,-2.65493 v -2.65493 l -9.988021,0.0752 -9.988021,0.0752 -5.943893,3.50573 c -5.885916,3.47154 -6.845943,3.86485 -7.749712,3.175 z m 7.415747,-4.19481 c 3.016258,-1.76145 5.900827,-3.44356 6.41015,-3.73803 11.943046,-6.90491 16.08985,-9.33991 16.470312,-9.67134 0.254662,-0.22184 0.463021,-0.68444 0.463021,-1.02799 0,-0.34355 -1.083934,-2.49799 -2.40874,-4.78764 -1.324808,-2.28965 -2.951662,-5.1155 -3.615232,-6.27967 -0.66357,-1.16416 -1.384028,-2.32502 -1.601018,-2.57968 -0.530129,-0.62217 -1.569132,-0.58216 -2.69376,0.10373 -0.509323,0.31063 -1.997604,1.18451 -3.307291,1.94195 -17.412986,10.07057 -22.891245,13.27489 -23.614063,13.81227 -0.578329,0.42996 -0.859896,0.86029 -0.859896,1.31421 0,0.3712 0.914668,2.24037 2.03259,4.15372 1.117926,1.91334 2.71901,4.66943 3.557966,6.12464 2.065832,3.58328 2.265572,3.83646 3.026749,3.83646 0.360304,0 3.122951,-1.44119 6.139212,-3.20263 z m -2.859003,0.14939 c -0.194006,-0.23376 -0.831705,-0.66937 -1.417109,-0.96802 -0.866854,-0.44224 -1.367752,-0.51468 -2.699228,-0.39034 l -1.634858,0.15266 -1.750243,-3.03274 c -0.962633,-1.66801 -1.750242,-3.12977 -1.750242,-3.24837 0,-0.1186 0.2942,-0.49202 0.65378,-0.82982 0.882504,-0.82907 1.260676,-2.10043 1.154432,-3.88101 l -0.08842,-1.48189 4.7625,-2.77985 c 4.682144,-2.73294 9.247968,-5.38396 14.09713,-8.18511 l 2.455466,-1.41841 0.984117,0.78639 c 1.098069,0.87745 2.758387,1.34323 3.762246,1.05545 1.333553,-0.38229 1.456502,-0.27741 3.252105,2.77411 0.976238,1.65907 1.774978,3.0948 1.774978,3.19052 0,0.0957 -0.386953,0.65566 -0.859896,1.24433 -0.793996,0.98827 -0.860875,1.22184 -0.872675,3.0478 l -0.01278,1.97751 -6.469515,3.76811 c -8.328219,4.8507 -14.59171,8.47366 -14.813897,8.56875 -0.09633,0.0412 -0.333885,-0.11631 -0.527894,-0.35007 z m 9.999361,-9.03534 c 1.421032,-1.14853 1.991219,-2.26008 1.991219,-3.88178 0,-2.14353 -1.036822,-3.68221 -3.047269,-4.52222 -1.287243,-0.53785 -2.475368,-0.50934 -3.7752,0.0906 -1.929802,0.89066 -2.827345,2.34974 -2.815357,4.57675 0.0082,1.51871 0.542827,2.60772 1.75677,3.57831 1.182325,0.9453 1.798174,1.12676 3.508587,1.03381 1.085564,-0.059 1.609325,-0.25155 2.38125,-0.87544 z m -8.667708,-12.05696 c 5.020469,-2.91101 10.625476,-6.17007 12.455573,-7.24235 3.321608,-1.94619 4.252851,-2.24302 5.07896,-1.61888 0.367067,0.27732 2.708725,4.17683 6.593623,10.9802 0.436255,0.76399 0.877075,1.38907 0.979601,1.38907 0.371351,0 0.82141,-0.64728 0.82141,-1.18136 0,-0.3005 -1.613305,-3.34254 -3.585123,-6.7601 -4.534263,-7.8588 -4.222351,-7.40487 -5.08608,-7.40187 -0.862253,0.003 -29.074843,16.30774 -29.48455,17.03985 -0.182581,0.32625 -0.176393,0.67776 0.0195,1.10771 l 0.286957,0.6298 1.396,-0.82467 c 0.767805,-0.45356 5.503661,-3.20639 10.524129,-6.1174 z m -5.291667,-0.59223 c 2.983177,-1.71217 9.185381,-5.30004 13.782675,-7.97305 5.054526,-2.93885 8.632643,-4.86002 9.051674,-4.86002 0.381124,0 0.905952,0.23025 1.166281,0.51166 0.260331,0.28141 1.829019,2.87102 3.485975,5.75469 3.844343,6.69047 3.712477,6.48493 4.08182,6.36231 0.172627,-0.0573 0.415729,-0.39226 0.540226,-0.74434 0.17921,-0.5068 0.03271,-0.97076 -0.703278,-2.22733 -0.511302,-0.87296 -2.202834,-3.78985 -3.758957,-6.48199 -1.556126,-2.69213 -3.014274,-5.10315 -3.240331,-5.35781 -0.821013,-0.92489 0.769924,-1.76014 -23.450341,12.31146 -3.621685,2.10414 -6.698287,4.02835 -6.836894,4.27603 -0.269568,0.48169 -0.05188,1.82859 0.266512,1.64898 0.104873,-0.0592 2.631461,-1.50842 5.614638,-3.22059 z"
       id="path53"
       inkscape:connector-curvature="0" />
  </g>
</svg>
