<?xml version="1.0" encoding="UTF-8" standalone="no"?>
<svg
   xmlns:dc="http://purl.org/dc/elements/1.1/"
   xmlns:cc="http://creativecommons.org/ns#"
   xmlns:rdf="http://www.w3.org/1999/02/22-rdf-syntax-ns#"
   xmlns:svg="http://www.w3.org/2000/svg"
   xmlns="http://www.w3.org/2000/svg"
   xmlns:sodipodi="http://sodipodi.sourceforge.net/DTD/sodipodi-0.dtd"
   xmlns:inkscape="http://www.inkscape.org/namespaces/inkscape"
   width="2285.8811"
   height="1386.908"
   viewBox="0 0 744.45479 451.57704"
   version="1.1"
   id="svg16"
   sodipodi:docname="bandeirado-brasil.svg"
   inkscape:version="0.92.5 (2060ec1f9f, 2020-04-08)">
  <metadata
     id="metadata22">
    <rdf:RDF>
      <cc:Work
         rdf:about="">
        <dc:format>image/svg+xml</dc:format>
        <dc:type
           rdf:resource="http://purl.org/dc/dcmitype/StillImage" />
        <dc:title></dc:title>
      </cc:Work>
    </rdf:RDF>
  </metadata>
  <defs
     id="defs20" />
  <sodipodi:namedview
     pagecolor="#ffffff"
     bordercolor="#666666"
     borderopacity="1"
     objecttolerance="10"
     gridtolerance="10"
     guidetolerance="10"
     inkscape:pageopacity="0"
     inkscape:pageshadow="2"
     inkscape:window-width="1366"
     inkscape:window-height="696"
     id="namedview18"
     showgrid="false"
     inkscape:zoom="0.16480447"
     inkscape:cx="1250"
     inkscape:cy="716"
     inkscape:window-x="0"
     inkscape:window-y="0"
     inkscape:window-maximized="1"
     inkscape:current-layer="svg16" />
  <path
     style="clip-rule:evenodd;fill:#5d805e;fill-rule:evenodd;stroke-width:0.94115114"
     inkscape:connector-curvature="0"
     id="path2"
     d="M 0,-0.10787276 H 744.45475 V 451.57366 H 0 Z" />
  <path
     style="clip-rule:evenodd;fill:#fff22d;fill-rule:evenodd;stroke-width:0.94115114"
     inkscape:connector-curvature="0"
     id="path4"
     d="M 372.22738,54.578202 679.19102,225.73241 372.22738,397.15108 65.263731,225.73241 Z" />
  <path
     style="clip-rule:evenodd;fill:#4a4999;fill-rule:evenodd"
     inkscape:connector-curvature="0"
     id="path6"
     d="m 371.9211,96.695517 c 71.106,0 128.913,58.078993 128.913,128.912993 0,71.106 -57.807,129.185 -128.913,129.185 -70.834,0 -128.913,-58.078 -128.913,-129.185 0,-70.834 58.079,-128.912993 128.913,-128.912993 z" />
  <path
     style="clip-rule:evenodd;fill:#ffffff;fill-rule:evenodd"
     inkscape:connector-curvature="0"
     id="path8"
     d="m 497.3061,251.66351 c -85.219,-47.495 -188.078,-55.908 -254.027,-25.783 0,-9.499 1.086,-18.726 3.257,-28.225 61.607,-31.211 163.381,-19.27 253.756,27.953 -0.272,8.142 -0.815,17.37 -2.986,26.055 z m -52.108,-72.192 3.257,6.514 7.056,-1.629 -5.157,5.157 3.529,6.242 -6.243,-3.528 -4.884,5.428 1.356,-7.328 -6.514,-2.714 7.057,-1.086 z m -156.053,107.744 3.257,6.514 7.056,-1.629 -5.428,5.157 3.8,6.243 -6.514,-3.257 -4.613,5.156 1.356,-7.057 -6.513,-2.985 6.785,-0.814 z m 39.081,-26.053 2.171,4.07 4.343,-1.085 -3.257,3.257 2.171,3.799 -3.8,-1.9 -2.985,3.257 0.814,-4.614 -4.342,-1.628 4.614,-0.815 z m -3.256,52.107 1.628,3.528 3.799,-0.814 -2.714,2.715 1.9,3.257 -3.527,-1.629 -2.443,2.714 0.543,-3.8 -3.529,-1.628 3.8,-0.272 z m 77.076,-7.056 1.629,3.529 3.798,-0.815 -2.985,2.714 2.172,3.257 -3.528,-1.9 -2.443,2.985 0.814,-3.799 -3.528,-1.629 3.528,-0.543 z m 17.097,2.171 1.629,3.257 3.8,-0.814 -2.714,2.714 1.9,3.256 -3.257,-1.899 -2.714,2.985 0.814,-3.8 -3.528,-1.627 3.8,-0.543 z m 15.471,-18.183 1.628,3.528 3.8,-0.814 -2.714,2.713 1.899,3.257 -3.256,-1.628 -2.714,2.714 0.814,-3.8 -3.528,-1.357 3.8,-0.543 z m 21.44,1.357 1.628,3.527 3.8,-0.814 -2.985,2.443 2.171,3.529 -3.529,-1.901 -2.442,2.714 0.814,-3.527 -3.528,-1.629 3.528,-0.543 z m 0.543,-7.6 1.085,2.443 2.714,-0.543 -1.899,1.9 1.356,2.171 -2.442,-1.086 -1.9,1.901 0.543,-2.714 -2.443,-1.086 2.714,-0.272 z m 8.413,-9.499 2.171,4.343 4.885,-0.814 -3.528,3.257 2.443,4.342 -4.342,-2.443 -3.257,3.528 0.814,-4.613 -4.614,-2.171 4.885,-0.543 z m 1.357,-14.383 2.171,4.342 4.614,-0.814 -3.528,3.257 2.714,4.07 -4.343,-2.171 -3.256,3.529 0.814,-4.885 -4.343,-1.901 4.886,-0.543 z m 15.47,-4.614 2.171,4.342 4.885,-1.085 -3.529,3.528 2.443,4.071 -4.342,-2.443 -3.257,3.8 0.814,-4.885 -4.342,-1.9 4.614,-0.543 z m -117.515,11.127 1.9,3.8 4.342,-0.814 -2.985,2.985 2.171,4.071 -4.071,-2.172 -2.985,3.529 0.814,-4.613 -4.071,-1.901 4.342,-0.543 z m 9.771,9.228 1.899,3.799 4.071,-0.814 -2.986,2.986 2.172,3.528 -3.528,-1.9 -2.986,2.985 0.815,-4.07 -3.529,-1.629 3.8,-0.543 z m 8.684,-13.299 2.443,5.157 5.427,-1.086 -3.799,3.8 2.713,4.885 -4.884,-2.714 -3.8,4.342 1.086,-5.699 -5.157,-2.171 5.428,-0.814 z m -22.797,18.727 2.171,4.071 4.342,-1.086 -3.257,3.257 2.172,4.071 -4.071,-2.172 -2.986,3.257 0.814,-4.342 -4.07,-1.9 4.342,-0.543 z" />
  <path
     style="clip-rule:evenodd;fill:#ffffff;fill-rule:evenodd"
     inkscape:connector-curvature="0"
     id="path10"
     d="m 436.7851,238.90751 2.171,4.884 5.156,-1.356 -3.527,3.8 2.442,4.342 -4.614,-2.443 -3.257,3.8 0.815,-5.157 -4.615,-1.9 4.886,-0.813 z m -59.437,47.765 2.172,4.615 4.885,-1.086 -3.799,3.528 2.713,4.342 -4.342,-2.443 -3.528,4.072 0.815,-5.157 -4.343,-2.171 4.885,-0.542 z m 31.754,28.497 2.443,4.614 4.886,-1.085 -3.529,3.527 2.443,4.614 -4.615,-2.442 -3.527,3.8 1.085,-4.886 -4.613,-2.442 4.884,-0.543 z m 34.739,-19.541 2.172,4.615 4.884,-1.086 -3.799,3.528 2.713,4.342 -4.613,-2.171 -3.257,3.8 0.815,-5.156 -4.615,-2.172 5.157,-0.542 z m 8.685,11.399 2.442,4.614 4.885,-1.086 -3.799,3.528 2.713,4.342 -4.613,-2.171 -3.257,3.8 0.815,-5.156 -4.614,-2.172 5.157,-0.542 z m -188.078,-71.649 1.629,3.257 3.799,-0.543 -2.714,2.715 1.629,2.984 -3.257,-1.627 -2.443,2.713 0.543,-3.799 -3.528,-1.357 3.799,-0.543 z m 115.344,96.618 1.628,3.256 3.528,-0.543 -2.714,2.443 1.9,3.257 -3.257,-1.628 -2.443,2.714 0.543,-3.8 -3.256,-1.358 3.528,-0.542 z" />
  <path
     style="clip-rule:evenodd;fill-rule:evenodd"
     inkscape:connector-curvature="0"
     id="path12"
     d="m 260.9201,197.38351 c 1.357,-0.543 2.171,-0.543 2.985,-0.271 1.086,0.543 1.629,1.357 1.9,2.442 0.272,0.543 0.272,1.086 0.272,1.629 0.271,0.814 0.271,1.356 0.271,2.442 0,1.085 -0.271,2.171 -0.814,3.528 0,1.085 -0.543,2.171 -1.357,2.985 -1.357,1.899 -2.986,3.256 -4.885,4.07 -2.171,0.814 -4.071,0.543 -5.157,-0.814 -0.814,-0.542 -1.085,-1.357 -1.357,-2.171 -0.271,-0.814 -0.543,-1.628 -0.543,-2.985 0.271,-0.814 0.271,-1.357 0.543,-2.171 0.272,-0.814 0.543,-1.628 1.085,-2.171 0.543,-1.629 1.9,-2.985 3.257,-4.071 1.086,-1.085 2.443,-1.899 3.8,-2.442 z m -0.271,1.357 c -1.086,0.271 -2.171,0.814 -2.986,1.628 a 9.754,9.754 0 0 0 -2.171,3.257 c -0.543,1.085 -1.085,2.442 -1.085,4.071 0,1.629 0.271,2.714 0.542,3.528 0.543,1.086 1.086,1.629 1.9,1.9 a 3.772,3.772 0 0 0 2.443,0 c 0.814,-0.271 1.628,-0.814 2.442,-1.628 0.543,-0.814 1.086,-1.899 1.628,-3.256 0.542,-1.357 0.814,-2.714 0.814,-4.071 0,-1.628 0,-2.714 -0.272,-3.799 -0.271,-1.085 -0.542,-1.628 -1.085,-1.9 -0.542,-0.272 -1.356,-10e-4 -2.17,0.27 z m 8.956,-3.799 c 2.171,-0.543 4.614,-1.357 7.056,-1.9 1.357,-0.271 2.171,-0.271 2.985,0 0.271,0 0.814,0.271 1.086,0.814 0.271,0.814 0.271,1.357 0.271,2.171 -0.271,0.814 -0.542,1.628 -1.085,2.442 -0.271,0.542 -0.814,1.085 -1.628,1.628 -0.542,0.543 -1.357,1.086 -2.714,1.357 0.814,0.543 1.357,1.357 1.629,2.171 0.814,0.814 1.357,1.357 1.899,2.171 0.271,0.543 0.543,0.814 0.543,0.814 0.271,0.271 0.271,0.271 0.543,0.271 0.271,0.271 0.814,0.271 1.085,0.271 0,0 0,-0.271 0.271,-0.271 0,0.542 0,0.542 -0.271,1.085 -1.085,0 -1.9,0.272 -2.985,0.543 -0.814,-1.085 -1.628,-2.171 -2.442,-3.528 -0.814,-0.814 -1.628,-1.9 -2.171,-2.985 -0.814,0 -1.357,0.271 -1.899,0.271 v 2.714 c 0,0.814 -0.271,1.628 -0.271,2.442 0,0.542 0.271,0.814 0.271,1.085 0,0.271 0.271,0.271 0.271,0.543 0.271,0 0.543,0 1.086,-0.271 h 0.271 v 1.086 c -1.899,0.271 -3.528,0.814 -5.156,1.356 v -1.085 h 0.271 c 0.543,0 0.814,-0.271 0.814,-0.271 0,0 0.271,-0.271 0.271,-0.543 0,0 0.271,-0.271 0.271,-0.543 v -1.085 c 0,-1.9 0,-3.528 0.271,-5.428 0,-1.628 0.271,-3.528 0.543,-5.156 0.271,-0.543 0.271,-0.814 0,-1.085 v -0.271 h -0.814 c -0.271,0.271 -0.543,0.271 -0.543,0.271 -10e-4,-0.27 -10e-4,-0.813 0.271,-1.084 z m 3.256,0.271 c -0.271,1.085 -0.542,1.9 -0.542,2.986 -0.271,1.085 -0.271,2.171 -0.542,3.256 1.085,-0.271 1.899,-0.542 2.985,-0.814 0.814,-0.271 1.628,-0.543 1.9,-0.814 0.543,-0.271 1.086,-0.814 1.357,-1.085 0.543,-0.814 0.814,-1.357 0.814,-2.171 v -1.628 l -0.814,-0.814 h -1.628 c -1.358,0.541 -2.444,0.813 -3.53,1.084 z m 10.856,-2.714 c 0,-0.271 0,-0.542 0.272,-0.814 1.628,-0.543 3.256,-0.814 4.613,-1.086 2.443,-0.271 3.8,-0.271 4.614,-0.271 1.085,0.271 2.171,1.085 2.714,2.442 0.271,0.542 0.543,1.357 0.543,2.171 0.271,0.814 0.271,1.628 0.271,2.714 -0.271,1.085 -0.543,2.442 -1.085,3.528 -0.543,1.085 -1.086,2.171 -1.629,2.985 -0.814,0.543 -1.357,1.085 -2.442,1.357 -0.542,0.543 -1.628,0.814 -2.442,0.814 -2.171,0.543 -4.342,1.085 -6.785,1.357 v -0.814 c 0.271,-0.271 0.271,-0.271 0.543,-0.271 h 0.271 c 0.271,0 0.271,0 0.542,-0.271 0.272,-0.271 0.272,-0.271 0.272,-0.543 0.271,-0.271 0.271,-0.543 0.271,-1.085 0,-1.9 0,-3.528 0.271,-5.428 0,-1.628 0.271,-3.528 0.542,-5.428 0.271,-0.543 0.271,-0.814 0.271,-1.085 0,-0.271 -0.271,-0.271 -0.542,-0.271 10e-4,-10e-4 -0.542,-10e-4 -1.085,-10e-4 z m 2.172,13.298 c 1.085,-0.271 1.9,-0.543 2.985,-0.543 0.271,-0.271 0.814,-0.271 1.357,-0.542 0.814,-0.271 1.085,-0.271 1.357,-0.543 a 3.27,3.27 0 0 0 1.357,-1.357 c 0.542,-0.814 0.814,-1.357 1.085,-2.171 0.271,-1.086 0.271,-1.9 0.543,-2.985 0,-1.086 0,-1.9 -0.271,-2.714 0,-0.543 -0.271,-1.357 -0.542,-1.9 -0.271,-0.543 -0.543,-0.814 -1.086,-1.085 -0.542,-0.271 -1.085,-0.543 -1.628,-0.543 -0.272,0 -1.086,0.271 -1.9,0.271 -0.814,0.271 -1.357,0.271 -1.9,0.543 -0.542,2.171 -0.814,4.342 -1.085,6.513 -0.272,2.443 -0.272,4.885 -0.272,7.056 z m 13.84,-16.554 c 3.8,-0.543 7.328,-0.814 11.128,-1.086 0,0.814 0,1.357 0.271,2.171 v 1.9 c 0,0.271 -0.543,0.271 -0.814,0.542 0,-0.814 -0.271,-1.357 -0.271,-1.628 -0.271,-0.271 -0.543,-0.814 -0.814,-0.814 -0.271,-0.272 -0.814,-0.543 -1.085,-0.543 h -1.899 c -1.086,0 -2.171,0 -3.257,0.271 -0.271,0.814 -0.271,1.9 -0.542,2.986 0,0.814 0,1.9 -0.271,2.714 h 1.628 c 0.543,0 1.085,-0.271 1.357,-0.543 0.271,-0.271 0.543,-0.542 0.814,-1.085 0,-0.271 0.272,-0.543 0.272,-1.085 v -0.271 c 0.271,-0.271 0.814,-0.271 1.085,-0.271 -0.271,1.085 -0.543,2.443 -0.543,3.528 0,1.085 -0.271,2.442 -0.271,3.528 h -0.814 v -0.543 -1.085 c -0.271,-0.271 -0.271,-0.543 -0.271,-0.814 -0.271,-0.271 -0.543,-0.271 -0.543,-0.271 -0.271,-0.271 -0.542,-0.271 -1.085,0 h -1.628 c 0,1.086 -0.271,1.9 -0.271,2.714 v 3.528 c 0,0.271 0,0.271 0.271,0.271 h 0.543 c 0.814,0 1.357,0 2.171,-0.271 1.085,0 1.9,-0.271 2.714,-0.543 0.542,-0.542 1.085,-0.814 1.628,-1.628 0.271,-0.543 0.814,-1.357 1.357,-2.171 0.272,0 0.543,0 0.543,0.271 l -0.814,2.443 c -0.271,0.814 -0.543,1.628 -0.814,2.714 -3.799,0.271 -7.599,0.543 -11.398,1.085 v -1.085 h 0.543 c 0.542,0 0.814,0 0.814,-0.271 0.271,0 0.271,-0.271 0.271,-0.543 0,0 0,-0.543 0.272,-1.086 0,-1.628 0,-3.528 0.271,-5.428 0,-1.899 0.271,-3.799 0.814,-5.428 v -1.085 l -0.271,-0.272 h -1.086 c -0.005,-0.274 -0.005,-0.545 -0.005,-0.816 z m 14.385,-1.358 c 1.357,0 2.714,0 4.342,-0.271 0.271,2.171 0.543,4.343 0.814,6.242 0.271,2.171 0.814,4.343 1.357,6.242 0.814,-1.899 1.628,-4.071 2.442,-6.242 1.086,-2.171 2.171,-4.071 2.986,-6.242 h 4.342 c -0.271,0.271 -0.271,0.814 -0.271,1.086 h -1.356 c 0,0.271 -0.271,0.271 -0.271,0.543 -0.271,0.271 -0.271,0.542 -0.543,1.085 0,1.628 -0.271,3.256 -0.543,5.156 -0.271,1.628 -0.271,3.257 -0.542,5.157 v 1.085 c 0,0.271 0.271,0.271 0.271,0.542 h 1.357 c -0.271,0.271 -0.271,0.814 -0.271,1.086 h -5.157 c 0.271,-0.271 0.271,-0.543 0.271,-1.086 h 1.085 c 0.271,0 0.271,-0.271 0.271,-0.271 l 0.271,-0.271 c 0,-0.271 0.271,-0.542 0.271,-0.814 0,-1.9 0,-3.8 0.271,-5.7 0.271,-2.171 0.543,-4.071 0.814,-5.97 -1.085,2.442 -2.171,4.613 -2.985,7.056 -0.814,2.443 -1.9,4.886 -2.714,7.057 h -1.085 c -0.543,-2.171 -1.086,-4.614 -1.628,-6.785 -0.543,-2.442 -1.086,-4.613 -1.086,-6.785 -0.542,1.628 -0.814,3.528 -1.085,5.428 0,1.9 -0.271,3.799 -0.271,5.7 v 1.085 c 0,0.271 0.271,0.271 0.271,0.542 h 1.357 c 0,0.271 0,0.543 -0.272,1.086 -1.357,0 -2.985,0 -4.614,0.271 v -1.086 h 0.543 c 0.272,0 0.814,0 0.814,-0.271 0.271,0 0.271,-0.271 0.542,-0.542 v -1.085 c 0.271,-1.9 0.271,-3.528 0.543,-5.157 0,-1.9 0.271,-3.528 0.814,-5.157 v -1.085 c 0,-0.271 0,-0.271 -0.271,-0.542 h -1.357 c 0.001,-0.272 0.001,-0.544 0.273,-1.087 z m 30.668,0.272 c 3.528,0.271 7.328,0.543 10.856,0.814 0,0.814 0.271,1.357 0.271,2.171 0,0.543 0.272,1.357 0.272,1.9 -0.272,0.271 -0.543,0.271 -0.814,0.271 -0.271,-0.542 -0.271,-1.085 -0.543,-1.356 -0.271,-0.543 -0.543,-0.814 -0.814,-1.086 -0.271,-0.271 -0.542,-0.542 -0.814,-0.542 -0.271,-0.272 -1.085,-0.272 -1.9,-0.272 -1.085,-0.271 -2.171,-0.271 -3.257,-0.542 -0.271,1.085 -0.271,1.9 -0.542,2.985 0,0.814 -0.271,1.628 -0.271,2.714 0.542,0 1.085,0 1.628,0.271 0.543,0 1.085,-0.271 1.357,-0.271 0.271,-0.271 0.542,-0.542 0.542,-0.814 0.272,-0.271 0.272,-0.814 0.543,-1.357 v -0.271 h 0.814 c 0,1.085 -0.271,2.171 -0.543,3.257 0,1.357 -0.271,2.442 -0.271,3.528 -0.271,0 -0.543,-0.271 -0.814,-0.271 v -0.543 c 0.271,-0.271 0,-0.814 0,-1.085 0,-0.271 0,-0.543 -0.271,-0.543 0,-0.271 -0.271,-0.543 -0.542,-0.543 -0.271,0 -0.543,-0.271 -1.086,-0.271 h -1.628 c 0,0.814 0,1.629 -0.271,2.443 0,0.814 -0.271,1.628 -0.271,2.714 v 0.814 l 0.271,0.271 h 0.814 c 0.542,0 1.085,0.271 1.9,0.271 1.085,0 1.899,0 2.714,-0.271 0.543,-0.271 1.085,-0.814 1.628,-1.356 0.542,-0.271 0.814,-1.086 1.357,-1.9 0.271,0 0.543,0.271 0.814,0.271 -0.271,0.814 -0.542,1.629 -1.085,2.443 -0.271,0.814 -0.543,1.628 -1.085,2.442 -3.528,-0.271 -7.328,-0.814 -11.127,-0.814 0,-0.271 0.271,-0.543 0.271,-1.086 h 0.271 c 0.543,0.271 0.814,0 0.814,0 0.271,0 0.542,-0.271 0.542,-0.542 0,0 0.271,-0.271 0.271,-0.814 0,-1.9 0.271,-3.528 0.542,-5.157 0,-1.9 0.271,-3.528 0.543,-5.428 0.271,-0.271 0.271,-0.814 0.271,-0.814 l -0.543,-0.542 h -1.085 c 0.271,-0.275 0.271,-0.818 0.271,-1.089 z m 26.325,2.714 4.885,0.814 c 1.899,0 2.985,0.271 3.257,0.814 0.814,0.271 1.357,0.814 1.628,1.628 0.271,0.814 0.543,1.628 0.271,2.442 0,1.086 -0.271,1.629 -0.813,2.171 -0.543,0.814 -1.086,1.085 -1.629,1.357 -0.814,0.271 -1.899,0.271 -3.257,0.271 -0.813,-0.271 -1.628,-0.271 -2.171,-0.543 l -0.814,4.071 v 0.814 c 0,0.271 0.271,0.542 0.271,0.542 0,0 0.271,0.271 0.543,0.271 h 0.543 v 1.086 l -4.885,-0.814 c 0,-0.271 0,-0.543 0.271,-0.814 h 1.085 c 0.271,0 0.271,-0.271 0.271,-0.271 0.271,-0.271 0.271,-0.543 0.271,-1.085 0.271,-1.628 0.542,-3.257 0.814,-5.157 0.271,-1.628 0.271,-3.257 0.542,-5.157 v -0.814 c 0,-0.271 0,-0.271 -0.271,-0.542 l -0.542,-0.271 h -0.271 z m 2.986,1.628 c 0,1.085 -0.271,2.171 -0.271,3.257 -0.271,0.814 -0.543,1.9 -0.543,2.985 0.543,0 1.357,0.271 1.899,0.271 h 2.442 c 0.271,-0.271 0.814,-0.271 1.086,-0.813 0.271,-0.543 0.543,-1.086 0.543,-1.9 0.271,-0.542 0,-1.356 -0.271,-1.899 0,-0.543 -0.271,-1.086 -0.814,-1.357 -0.543,0 -1.356,0 -2.171,-0.271 -0.815,-0.001 -1.357,-0.273 -1.9,-0.273 z m 8.684,0.272 c 2.171,0.271 4.613,0.542 6.784,1.085 1.357,0.271 2.172,0.543 2.986,1.086 0.542,0.271 0.813,0.814 1.085,1.356 0.271,0.814 0.543,1.629 0.271,2.171 0,0.814 -0.271,1.357 -0.814,1.9 -0.271,0.814 -0.813,1.085 -1.628,1.357 h -2.714 c 0.543,0.814 1.085,1.9 1.356,2.714 0.271,0.814 0.814,1.628 1.357,2.714 0.271,0.271 0.271,0.542 0.543,0.813 l 0.543,0.543 c 0.271,0.271 0.542,0.271 0.542,0.271 h 0.271 c 0,0.271 0,0.814 -0.271,1.086 -0.813,-0.271 -1.899,-0.543 -2.985,-0.543 -0.271,-1.357 -0.813,-2.714 -1.628,-4.071 -0.543,-1.356 -1.086,-2.714 -1.628,-3.799 -0.543,-0.271 -1.357,-0.271 -1.9,-0.271 0,0.542 -0.271,1.356 -0.271,2.171 0,0.814 -0.271,1.357 -0.271,2.171 0,0.543 -0.271,0.814 -0.271,1.086 0.271,0.271 0.271,0.543 0.271,0.543 0.271,0.271 0.543,0.271 0.814,0.271 h 0.543 c -0.271,0.271 -0.271,0.542 -0.271,0.814 l -4.885,-0.814 v -0.814 h 0.542 c 0.271,0.271 0.543,0.271 0.543,0.271 0.271,0 0.271,-0.271 0.543,-0.271 0,-0.271 0,-0.271 0.271,-0.543 v -1.085 l 0.813,-4.885 c 0.271,-1.357 0.543,-3.257 0.814,-4.885 0,-0.271 0.271,-0.542 0,-0.814 0,-0.271 0,-0.271 -0.271,-0.543 0,0 -0.271,-0.271 -0.543,-0.271 h -0.542 z m 3.257,1.628 c 0,1.085 -0.271,1.899 -0.271,2.714 -0.271,1.086 -0.543,1.899 -0.543,2.985 0.814,0 1.899,0.271 2.714,0.543 h 1.899 c 0.543,0 1.086,-0.271 1.357,-0.814 0.543,-0.271 0.814,-0.814 0.814,-1.357 v -1.628 c -0.271,-0.543 -0.543,-0.814 -0.814,-1.085 -0.543,-0.271 -1.086,-0.543 -1.629,-0.543 -1.356,-0.272 -2.442,-0.544 -3.527,-0.815 z m 17.641,2.171 c 1.086,0.271 2.171,0.814 2.985,1.629 a 9.764,9.764 0 0 1 2.171,3.256 c 0,0.543 0.271,1.085 0.271,1.9 0,0.814 0,1.357 -0.271,2.171 -0.271,1.086 -0.543,1.9 -1.086,2.714 -0.542,1.085 -0.813,1.9 -1.628,2.171 -1.629,1.357 -3.257,1.628 -5.156,1.085 -2.172,-0.271 -3.8,-1.628 -4.614,-3.528 -0.543,-0.813 -0.814,-1.628 -0.814,-2.442 0,-1.085 0,-1.899 0.271,-2.985 0,-0.814 0,-1.356 0.271,-1.899 0.271,-0.543 0.543,-1.357 1.086,-1.9 0.814,-0.814 1.628,-1.628 2.714,-1.9 1.356,-0.544 2.442,-0.544 3.8,-0.272 z m -0.272,1.086 c -0.814,-0.271 -1.9,0 -2.442,0.271 -0.814,0.271 -1.629,0.814 -2.172,1.628 -0.542,1.086 -0.813,2.171 -1.085,3.528 -0.272,1.357 -0.271,2.714 0,3.8 0.271,0.814 0.543,1.899 1.085,2.442 0.543,0.814 1.357,1.085 2.442,1.085 0.543,0.271 1.357,0.271 2.172,0 0.814,-0.271 1.628,-1.085 2.171,-2.171 0.814,-0.814 1.086,-1.9 1.357,-3.257 0.271,-1.357 0.271,-2.714 0,-3.799 a 5.243,5.243 0 0 0 -1.357,-2.443 c -0.543,-0.541 -1.086,-0.813 -2.171,-1.084 z m 18.727,3.799 h 0.543 c 0.271,0.814 0.271,1.628 0.271,2.443 0,0.814 0.271,1.628 0.271,2.442 h -0.814 c -0.542,-1.628 -1.085,-2.714 -1.628,-3.528 -0.543,-0.814 -1.357,-1.357 -2.171,-1.628 -1.357,-0.271 -2.714,0 -3.528,1.085 -0.543,0.543 -1.086,1.086 -1.357,1.9 -0.542,0.543 -0.542,1.357 -0.813,2.171 a 7.756,7.756 0 0 0 0,3.528 c 0.271,1.085 0.542,2.171 1.356,2.714 0.543,0.814 1.357,1.357 2.172,1.357 0.542,0.271 1.085,0.271 1.628,0.271 0.543,-0.271 1.085,-0.271 1.356,-0.542 0.271,-0.271 0.543,-0.543 0.543,-0.814 0.271,0 0.543,-0.543 0.543,-1.086 0,-0.271 0,-0.271 0.271,-0.543 v -1.356 l -0.543,-0.543 c 0,0 -0.543,-0.271 -1.356,-0.543 0.271,-0.271 0.271,-0.542 0.271,-0.814 1.9,0.543 3.529,0.814 5.157,1.357 v 0.814 h -1.357 c 0,0 -0.271,0 -0.271,0.271 0,0 -0.272,0.271 -0.272,0.814 -0.271,0.814 -0.542,1.629 -0.542,2.443 -0.271,1.085 -0.543,1.9 -0.543,2.443 h -1.086 v -1.357 c -0.814,0.271 -1.356,0.543 -1.899,0.543 -1.086,0 -1.899,0 -2.714,-0.271 -1.629,-0.271 -2.985,-1.628 -3.8,-3.257 -0.543,-0.814 -1.086,-1.628 -1.086,-2.714 0,-1.086 0,-1.899 0.272,-2.985 0,-1.085 0.271,-2.171 0.813,-2.985 0.542,-0.814 1.086,-1.357 1.899,-1.899 1.357,-1.357 2.986,-1.629 4.886,-1.086 0.271,0 0.542,0.271 1.085,0.543 0.271,0.271 0.814,0.543 1.086,0.814 0.271,0 0.543,0.271 0.814,0.814 0,-0.544 0.271,-0.544 0.543,-0.816 z m 4.885,1.086 c 2.171,0.814 4.342,1.357 6.514,1.9 1.356,0.543 2.171,0.814 2.985,1.357 0.542,0.543 0.814,1.086 1.356,1.628 0.271,0.814 0.271,1.628 0.271,2.443 -0.271,0.542 -0.543,1.085 -1.086,1.628 -0.271,0.543 -0.813,0.814 -1.628,1.086 -0.813,0 -1.628,0 -2.714,-0.271 0.543,0.814 0.814,1.899 1.357,2.714 0.271,0.814 0.813,1.899 1.085,2.985 0.271,0.543 0.271,0.543 0.271,0.814 0.271,0.271 0.271,0.542 0.543,0.542 0.271,0.271 0.543,0.543 0.814,0.543 h 0.271 c -0.271,0.271 -0.271,0.542 -0.271,0.814 -1.086,-0.271 -1.9,-0.543 -2.985,-0.814 -0.543,-1.357 -1.086,-2.714 -1.357,-4.071 -0.543,-1.357 -1.086,-2.985 -1.628,-4.071 -0.543,-0.271 -1.086,-0.543 -1.629,-0.543 0,0.814 -0.271,1.357 -0.543,2.171 0,0.814 -0.271,1.628 -0.542,2.171 v 1.628 c 0.271,0 0.542,0.271 1.085,0.271 0,0.271 0,0.271 0.271,0.271 0,0.271 -0.271,0.543 -0.271,0.814 -1.628,-0.543 -3.257,-1.086 -4.885,-1.357 0,-0.543 0,-0.814 0.271,-1.085 l 0.271,0.271 h 0.813 c 0,0 0.271,0 0.271,-0.271 0.271,0 0.271,0 0.271,-0.271 0.271,0 0.271,-0.271 0.543,-1.086 0.271,-1.628 0.543,-2.985 0.814,-4.613 l 0.814,-4.886 v -0.814 c 0,-0.272 0,-0.271 -0.271,-0.542 -0.271,0 -0.271,-0.271 -0.543,-0.271 h -0.543 c 0.005,-0.542 0.005,-0.814 0.005,-1.085 z m 3.256,2.171 c -0.271,0.814 -0.271,1.9 -0.271,2.714 -0.271,0.814 -0.271,1.9 -0.543,2.714 0.814,0.271 1.629,0.542 2.714,0.814 0.814,0.271 1.357,0.271 1.629,0.271 0.814,0 1.085,0 1.628,-0.542 0.271,-0.271 0.543,-0.814 0.543,-1.357 0,-0.543 0,-1.085 -0.271,-1.628 0,-0.542 0,-0.814 -0.543,-1.085 -0.271,-0.271 -0.813,-0.543 -1.628,-0.814 -1.087,-0.545 -2.173,-0.816 -3.258,-1.087 z m 10.314,1.9 c 3.256,1.085 6.784,2.171 10.041,3.528 0.271,0.542 0.271,1.356 0.543,2.171 0,0.543 0.271,1.085 0.271,1.899 h -0.814 c 0,-0.542 -0.271,-1.085 -0.543,-1.628 0,-0.271 -0.271,-0.814 -0.543,-1.086 -0.271,-0.542 -0.542,-0.814 -1.085,-0.814 -0.271,-0.271 -0.814,-0.542 -1.628,-0.814 -1.086,-0.271 -2.172,-0.814 -3.258,-1.086 0,1.086 0,1.628 -0.271,2.714 0,0.814 -0.271,1.628 -0.271,2.714 0.542,0 0.813,0.271 1.356,0.543 0.543,0 1.086,0.271 1.357,0 0.271,0 0.543,-0.271 0.813,-0.543 0.272,-0.271 0.272,-0.814 0.272,-1.356 h 0.813 c 0,1.085 -0.271,2.171 -0.543,3.257 0,1.085 -0.271,2.171 -0.543,3.256 -0.542,-0.271 -0.813,-0.271 -1.085,-0.542 0.271,0 0.271,-0.271 0.271,-0.271 0,-0.543 0.271,-0.814 0,-1.086 v -0.814 l -0.543,-0.542 c -0.271,-0.271 -0.543,-0.271 -1.086,-0.543 -0.271,0 -0.814,-0.271 -1.356,-0.543 -0.271,0.814 -0.543,1.628 -0.543,2.442 l -0.814,2.443 v 1.085 c 0,0.271 0.271,0.271 0.814,0.271 0.543,0.271 1.356,0.543 1.899,0.543 1.086,0.542 1.9,0.542 2.442,0.542 0.814,0 1.357,-0.271 1.9,-0.814 0.543,-0.271 1.085,-0.814 1.628,-1.628 l 0.814,0.814 c -0.543,0.543 -1.086,1.086 -1.357,1.9 -0.542,0.543 -0.813,1.357 -1.356,1.9 -3.528,-1.085 -7.057,-2.443 -10.585,-3.528 0,-0.271 0.271,-0.543 0.271,-0.814 0.271,0 0.271,0 0.271,0.271 h 0.814 c 0.271,0 0.271,0 0.543,-0.271 0,-0.271 0.271,-0.542 0.271,-0.814 0.543,-1.628 1.085,-3.528 1.356,-5.157 0.271,-1.356 0.543,-3.256 0.814,-4.885 v -0.814 c -0.271,-0.271 -0.271,-0.543 -0.543,-0.543 0,-0.271 -0.271,-0.271 -1.085,-0.542 0.278,-0.001 0.006,-0.544 0.278,-0.815 z m 21.711,7.327 c 0.271,0.271 0.271,0.271 0.543,0.271 0.271,0.814 0.271,1.629 0.271,2.443 0.271,0.814 0.271,1.9 0.271,2.443 h -0.814 c -0.543,-1.357 -1.085,-2.714 -1.628,-3.8 -0.814,-0.814 -1.629,-1.357 -2.442,-1.628 -0.543,-0.271 -1.086,-0.271 -1.357,-0.271 -0.543,0 -0.814,0.271 -1.086,0.543 -0.271,0.271 -0.543,0.542 -0.543,1.085 v 0.814 c 0.271,0.542 0.543,0.814 0.814,1.085 0.271,0.543 0.814,0.814 1.357,1.357 0.814,0.543 1.628,1.085 2.171,1.628 0.271,0.271 0.814,0.542 1.356,1.085 0.272,0.543 0.543,0.814 0.814,1.357 0.271,0.543 0.543,0.814 0.543,1.357 0,0.543 0,1.086 -0.271,1.628 -0.271,0.814 -1.086,1.628 -1.899,2.171 -1.357,0.271 -2.442,0.271 -3.8,0 -0.814,-0.271 -1.356,-0.543 -1.899,-1.086 -0.543,-0.271 -0.814,-0.814 -1.357,-1.628 -0.271,0.542 -0.543,0.813 -0.813,1.085 -0.271,0 -0.271,-0.271 -0.543,-0.271 0,-0.813 0.271,-1.628 0.271,-2.442 0,-1.086 0.271,-1.9 0.271,-2.714 h 0.813 c 0,1.086 0.271,2.171 0.543,2.986 0.271,0.814 0.814,1.357 1.357,1.899 0.271,0.271 1.085,0.814 1.628,1.085 a 3.77,3.77 0 0 0 2.442,0 c 0.814,-0.271 1.086,-0.814 1.357,-1.356 a 1.732,1.732 0 0 0 0,-1.628 c -0.543,-0.543 -1.086,-1.357 -1.9,-1.9 -0.813,-0.543 -1.356,-1.086 -2.171,-1.628 -1.086,-0.814 -1.899,-1.628 -2.171,-2.443 -0.543,-1.085 -0.543,-1.628 -0.543,-2.714 l 0.814,-1.628 c 0.543,-0.271 0.813,-0.542 1.628,-0.814 0.815,-0.272 1.629,0 2.442,0.271 0.543,0.271 1.357,0.542 1.9,1.085 0.542,0.271 0.814,0.814 1.085,1.357 0.274,-0.27 0.274,-0.813 0.546,-1.084 z m 11.941,4.614 c 0.271,0 0.543,0.271 0.814,0.271 0,0.814 0,1.628 0.271,2.714 v 2.442 c -0.271,-0.271 -0.543,-0.271 -0.814,-0.271 -0.271,-1.357 -0.814,-2.714 -1.628,-3.799 -0.543,-0.814 -1.357,-1.357 -2.442,-1.628 -0.543,-0.271 -0.814,-0.271 -1.357,-0.271 -0.271,0 -0.814,0.271 -1.086,0.543 -0.271,0 -0.271,0.543 -0.271,0.814 v 1.085 c 0.271,0.271 0.271,0.814 0.543,1.086 0.543,0.271 0.814,0.814 1.629,1.357 0.543,0.543 1.356,1.085 2.171,1.628 l 1.086,1.085 1.085,1.086 c 0,0.271 0.271,0.814 0.271,1.357 0,0.543 0,1.085 -0.271,1.628 -0.271,1.086 -1.085,1.9 -2.171,2.442 a 4.024,4.024 0 0 1 -3.528,0 c -0.814,-0.271 -1.356,-0.813 -1.899,-1.085 -0.543,-0.543 -0.814,-1.357 -1.357,-1.9 -0.271,0.271 -0.542,0.543 -0.814,1.086 -0.271,-0.271 -0.542,-0.271 -0.542,-0.271 0,-0.814 0,-1.899 0.271,-2.714 0,-0.814 0.271,-1.629 0.271,-2.442 0.272,0 0.543,0 1.086,0.271 0,0.813 0,1.628 0.271,2.442 0.543,0.813 0.814,1.628 1.357,2.171 0.271,0.543 1.085,0.814 1.628,1.086 0.814,0.543 1.629,0.543 2.442,0 0.814,-0.271 1.357,-0.814 1.357,-1.357 0.271,-0.543 0,-1.356 0,-1.899 -0.271,-0.271 -1.086,-0.814 -1.9,-1.629 -0.813,-0.271 -1.356,-0.813 -1.899,-1.356 -1.357,-0.814 -1.899,-1.9 -2.442,-2.714 -0.271,-0.814 -0.543,-1.629 -0.271,-2.443 0,-0.814 0.271,-1.357 0.814,-1.628 0.271,-0.542 0.813,-0.814 1.628,-1.085 0.543,0 1.357,0 2.171,0.271 0.814,0.272 1.357,0.814 1.9,1.357 0.543,0.271 0.813,0.543 1.356,1.085 -0.001,-0.272 0.27,-0.543 0.27,-0.815 z m 10.314,4.071 c 1.085,0.543 2.171,1.357 2.714,2.171 1.086,1.085 1.899,2.171 2.171,3.257 0,0.813 0.271,1.628 0.271,2.171 0,0.814 0,1.357 -0.271,2.172 -0.271,1.085 -0.814,2.171 -1.356,2.984 -0.543,0.543 -1.357,1.357 -2.172,1.9 -1.628,0.813 -3.256,0.813 -4.885,0 -2.171,-0.814 -3.528,-2.443 -4.071,-4.614 -0.271,-0.813 -0.542,-1.899 -0.542,-2.714 0,-0.815 0.271,-1.899 0.542,-2.714 0.271,-0.543 0.543,-1.357 0.543,-1.629 0.271,-0.542 0.814,-1.085 1.086,-1.628 0.542,-0.814 1.356,-1.357 2.442,-1.628 1.086,-0.271 2.17,-0.271 3.528,0.272 z m -0.272,1.085 a 3.77,3.77 0 0 0 -2.442,0 c -0.543,0 -1.086,0.543 -1.629,1.357 -0.543,0.542 -1.086,1.899 -1.356,2.985 -0.543,1.356 -0.543,2.442 -0.543,3.8 0,1.085 0.543,1.899 0.813,2.714 0.543,0.813 1.357,1.356 1.9,1.628 0.814,0.543 1.629,0.543 2.442,0.271 0.814,-0.271 1.629,-0.814 2.442,-1.629 0.814,-0.813 1.357,-1.899 1.629,-3.256 0.271,-1.357 0.271,-2.715 0,-3.8 0,-1.086 -0.543,-1.9 -1.086,-2.443 -0.542,-0.812 -1.085,-1.084 -2.17,-1.627 z" />
</svg>
